<svg width="23" height="23" viewBox="0 0 23 23" fill="none" xmlns="http://www.w3.org/2000/svg">
<path d="M9.58301 8.62508H4.79134C4.21634 8.62508 3.83301 8.24175 3.83301 7.66675V2.87508C3.83301 2.30008 4.21634 1.91675 4.79134 1.91675C5.36634 1.91675 5.74967 2.30008 5.74967 2.87508V6.70842H9.58301C10.158 6.70842 10.5413 7.09175 10.5413 7.66675C10.5413 8.24175 10.158 8.62508 9.58301 8.62508Z" fill="white"/>
<path d="M11.4997 20.1251C10.4456 20.1251 9.39141 19.9334 8.43307 19.5501C6.70807 18.8792 5.27057 17.7292 4.21641 16.1959C3.92891 15.7167 4.02474 15.1417 4.50391 14.8542C4.98307 14.5667 5.55807 14.6626 5.84557 15.1417C6.61224 16.2917 7.76224 17.2501 9.10391 17.7292C10.4456 18.2084 11.8831 18.3042 13.3206 17.9209C14.6622 17.5376 15.9081 16.6751 16.7706 15.5251C17.6331 14.3751 18.1122 13.0334 18.2081 11.5959C18.2081 10.1584 17.8247 8.7209 16.9622 7.5709C16.0997 6.4209 14.9497 5.5584 13.6081 5.07923C12.2664 4.60007 10.8289 4.60007 9.39141 5.07923C8.04974 5.5584 6.89974 6.4209 6.03724 7.5709C5.74974 8.05007 5.17474 8.1459 4.69557 7.8584C4.21641 7.5709 4.12057 6.90007 4.50391 6.51673C5.55807 4.9834 7.09141 3.8334 8.81641 3.2584C10.5414 2.6834 12.4581 2.6834 14.1831 3.2584C15.9081 3.8334 17.4414 4.9834 18.4956 6.51673C19.5497 8.05007 20.1247 9.77507 20.0289 11.6917C20.0289 13.5126 19.3581 15.3334 18.2081 16.7709C17.0581 18.2084 15.5247 19.2626 13.7039 19.8376C13.1289 20.0292 12.2664 20.1251 11.4997 20.1251Z" fill="white"/>
</svg>
