<svg width="54" height="54" viewBox="0 0 54 54" fill="none" xmlns="http://www.w3.org/2000/svg">
<g filter="url(#filter0_i_176_19999)">
<rect width="54" height="54" rx="27" transform="matrix(0 1 1 0 0 0)" fill="url(#paint0_linear_176_19999)"/>
<path d="M21.0943 39.0906C20.4204 38.4167 20.4204 37.3282 21.0943 36.6673L30.8393 26.9222L21.0943 17.1642C20.4204 16.4903 20.4204 15.4018 21.0943 14.7409C21.7681 14.067 22.8567 14.067 23.5176 14.7409L34.4419 25.6652C34.7918 26.0151 34.9473 26.4687 34.9473 26.9222C34.9473 27.3758 34.7918 27.8293 34.4419 28.1792L23.5176 39.1036C22.8437 39.7774 21.7552 39.7774 21.0943 39.1036V39.0906Z" fill="url(#paint1_linear_176_19999)"/>
<path d="M21.0943 39.0906C20.4204 38.4167 20.4204 37.3282 21.0943 36.6673L30.8393 26.9222L21.0943 17.1642C20.4204 16.4903 20.4204 15.4018 21.0943 14.7409C21.7681 14.067 22.8567 14.067 23.5176 14.7409L34.4419 25.6652C34.7918 26.0151 34.9473 26.4687 34.9473 26.9222C34.9473 27.3758 34.7918 27.8293 34.4419 28.1792L23.5176 39.1036C22.8437 39.7774 21.7552 39.7774 21.0943 39.1036V39.0906Z" fill="url(#paint2_linear_176_19999)"/>
</g>
<defs>
<filter id="filter0_i_176_19999" x="0" y="-2" width="54" height="56" filterUnits="userSpaceOnUse" color-interpolation-filters="sRGB">
<feFlood flood-opacity="0" result="BackgroundImageFix"/>
<feBlend mode="normal" in="SourceGraphic" in2="BackgroundImageFix" result="shape"/>
<feColorMatrix in="SourceAlpha" type="matrix" values="0 0 0 0 0 0 0 0 0 0 0 0 0 0 0 0 0 0 127 0" result="hardAlpha"/>
<feOffset dy="-5"/>
<feGaussianBlur stdDeviation="1"/>
<feComposite in2="hardAlpha" operator="arithmetic" k2="-1" k3="1"/>
<feColorMatrix type="matrix" values="0 0 0 0 0 0 0 0 0 0 0 0 0 0 0 0 0 0 0.25 0"/>
<feBlend mode="normal" in2="shape" result="effect1_innerShadow_176_19999"/>
</filter>
<linearGradient id="paint0_linear_176_19999" x1="-3.21865e-05" y1="27" x2="53.8564" y2="27" gradientUnits="userSpaceOnUse">
<stop stop-color="#4A8DF8"/>
<stop offset="1" stop-color="#1469F3"/>
</linearGradient>
<linearGradient id="paint1_linear_176_19999" x1="25.0007" y1="15.5001" x2="24.978" y2="39.9997" gradientUnits="userSpaceOnUse">
<stop stop-color="white"/>
<stop offset="1" stop-color="#9A88F5"/>
</linearGradient>
<linearGradient id="paint2_linear_176_19999" x1="25.0007" y1="15.5001" x2="24.978" y2="39.9997" gradientUnits="userSpaceOnUse">
<stop stop-color="white"/>
<stop offset="1" stop-color="#0AFEFF"/>
</linearGradient>
</defs>
</svg>
