<svg width="388" height="187" viewBox="0 0 388 187" fill="none" xmlns="http://www.w3.org/2000/svg">
<rect x="22.8018" y="91" width="347" height="88" rx="44" fill="url(#paint0_linear_7013_44297)"/>
<rect x="22.8018" y="91" width="347" height="88" rx="44" fill="url(#paint1_linear_7013_44297)" style="mix-blend-mode:multiply"/>
<rect x="22.8018" y="91" width="347" height="88" rx="44" fill="url(#paint2_linear_7013_44297)"/>
<g clip-path="url(#clip0_7013_44297)">
<g filter="url(#filter0_i_7013_44297)">
<rect x="38.8018" y="107" width="315" height="56" rx="28" fill="url(#paint3_linear_7013_44297)"/>
</g>
<rect x="39.8018" y="108" width="313" height="54" rx="27" stroke="url(#paint4_linear_7013_44297)" stroke-width="2"/>
</g>
<circle cx="66.8018" cy="100" r="5" fill="white"/>
<g filter="url(#filter1_d_7013_44297)">
<circle cx="86.8018" cy="100" r="5" fill="white"/>
</g>
<circle cx="306.802" cy="100" r="5" fill="white"/>
<g filter="url(#filter2_d_7013_44297)">
<circle cx="326.802" cy="100" r="5" fill="white"/>
</g>
<circle cx="104.802" cy="100" r="5" fill="white"/>
<g filter="url(#filter3_d_7013_44297)">
<circle cx="124.802" cy="100" r="5" fill="white"/>
</g>
<circle cx="144.802" cy="100" r="5" fill="white"/>
<g filter="url(#filter4_d_7013_44297)">
<circle cx="164.802" cy="100" r="5" fill="white"/>
</g>
<circle cx="184.802" cy="100" r="5" fill="white"/>
<g filter="url(#filter5_d_7013_44297)">
<circle cx="204.802" cy="100" r="5" fill="white"/>
</g>
<circle cx="224.802" cy="100" r="5" fill="white"/>
<g filter="url(#filter6_d_7013_44297)">
<circle cx="244.802" cy="100" r="5" fill="white"/>
</g>
<circle cx="264.802" cy="100" r="5" fill="white"/>
<g filter="url(#filter7_d_7013_44297)">
<circle cx="284.802" cy="100" r="5" fill="white"/>
</g>
<circle cx="33.8018" cy="125" r="5" fill="white"/>
<circle cx="46.8018" cy="165" r="5" fill="white"/>
<g filter="url(#filter8_d_7013_44297)">
<path d="M51.8018 105C51.8018 107.761 49.5632 110 46.8018 110C44.0403 110 41.8018 107.761 41.8018 105C41.8018 102.239 44.0403 100 46.8018 100C49.5632 100 51.8018 102.239 51.8018 105Z" fill="white"/>
</g>
<g filter="url(#filter9_d_7013_44297)">
<circle cx="33.8018" cy="148" r="5" fill="white"/>
</g>
<circle cx="359.802" cy="146" r="5" transform="rotate(180 359.802 146)" fill="white"/>
<circle cx="346.802" cy="106" r="5" transform="rotate(180 346.802 106)" fill="white"/>
<g filter="url(#filter10_d_7013_44297)">
<path d="M341.802 166C341.802 163.239 344.04 161 346.802 161C349.563 161 351.802 163.239 351.802 166C351.802 168.761 349.563 171 346.802 171C344.04 171 341.802 168.761 341.802 166Z" fill="white"/>
</g>
<g filter="url(#filter11_d_7013_44297)">
<circle cx="359.802" cy="123" r="5" transform="rotate(180 359.802 123)" fill="white"/>
</g>
<g filter="url(#filter12_d_7013_44297)">
<circle cx="66.8018" cy="170" r="5" fill="white"/>
</g>
<circle cx="86.8018" cy="170" r="5" fill="white"/>
<g filter="url(#filter13_d_7013_44297)">
<circle cx="106.802" cy="170" r="5" fill="white"/>
</g>
<circle cx="126.802" cy="170" r="5" fill="white"/>
<g filter="url(#filter14_d_7013_44297)">
<circle cx="146.802" cy="170" r="5" fill="white"/>
</g>
<circle cx="166.802" cy="170" r="5" fill="white"/>
<g filter="url(#filter15_d_7013_44297)">
<circle cx="186.802" cy="170" r="5" fill="white"/>
</g>
<circle cx="206.802" cy="170" r="5" fill="white"/>
<g filter="url(#filter16_d_7013_44297)">
<circle cx="226.802" cy="170" r="5" fill="white"/>
</g>
<circle cx="246.802" cy="170" r="5" fill="white"/>
<g filter="url(#filter17_d_7013_44297)">
<circle cx="266.802" cy="170" r="5" fill="white"/>
</g>
<circle cx="286.802" cy="170" r="5" fill="white"/>
<g filter="url(#filter18_d_7013_44297)">
<circle cx="306.802" cy="170" r="5" fill="white"/>
</g>
<circle cx="326.802" cy="170" r="5" fill="white"/>
<g filter="url(#filter19_di_7013_44297)">
<mask id="path-40-outside-1_7013_44297" maskUnits="userSpaceOnUse" x="3.30176" y="0" width="380" height="66" fill="black">
<rect fill="white" x="3.30176" width="380" height="66"/>
<path d="M42.0698 61.616C41.3658 61.808 40.2778 62 38.8058 62.192C37.3338 62.384 35.8938 62.48 34.4858 62.48C31.5418 62.48 29.3338 62 27.8618 61.04C26.3898 60.016 25.6538 57.904 25.6538 54.704V41.744C24.0538 39.376 22.3258 36.752 20.4698 33.872C18.6138 30.992 16.7898 28.048 14.9978 25.04C13.2058 22.032 11.5418 19.088 10.0058 16.208C8.46976 13.264 7.22176 10.576 6.26176 8.144C7.09376 6.99199 8.21376 5.936 9.62176 4.976C11.0938 4.016 12.8858 3.536 14.9978 3.536C17.4938 3.536 19.5098 4.048 21.0458 5.07199C22.6458 6.096 24.1498 8.016 25.5578 10.832L33.5258 26.864H34.1018C34.9978 24.88 35.7658 23.088 36.4058 21.488C37.1098 19.824 37.7818 18.192 38.4218 16.592C39.0618 14.928 39.7338 13.232 40.4378 11.504C41.1418 9.712 41.9418 7.664 42.8378 5.36C43.9898 4.784 45.2698 4.336 46.6778 4.016C48.0858 3.696 49.4298 3.536 50.7098 3.536C52.9498 3.536 54.8378 4.144 56.3738 5.36C57.9738 6.512 58.7738 8.272 58.7738 10.64C58.7738 11.408 58.6138 12.336 58.2938 13.424C57.9738 14.512 57.2378 16.176 56.0858 18.416C54.9338 20.592 53.2378 23.568 50.9978 27.344C48.8218 31.12 45.8458 36.048 42.0698 42.128V61.616ZM62.3805 32.816C62.3805 27.824 63.1485 23.408 64.6845 19.568C66.2845 15.728 68.4285 12.528 71.1165 9.96799C73.8685 7.344 77.0685 5.36 80.7165 4.016C84.4285 2.672 88.4285 2 92.7165 2C97.0045 2 100.973 2.672 104.621 4.016C108.333 5.36 111.565 7.344 114.317 9.96799C117.069 12.528 119.213 15.728 120.749 19.568C122.349 23.408 123.149 27.824 123.149 32.816C123.149 37.808 122.381 42.256 120.845 46.16C119.309 50 117.165 53.232 114.413 55.856C111.725 58.416 108.525 60.368 104.813 61.712C101.101 63.056 97.0685 63.728 92.7165 63.728C88.3645 63.728 84.3325 63.056 80.6205 61.712C76.9085 60.304 73.7085 58.288 71.0205 55.664C68.3325 53.04 66.2205 49.808 64.6845 45.968C63.1485 42.128 62.3805 37.744 62.3805 32.816ZM79.6605 32.816C79.6605 38.64 80.8445 42.992 83.2125 45.872C85.5805 48.752 88.7485 50.192 92.7165 50.192C96.7485 50.192 99.9485 48.752 102.317 45.872C104.685 42.992 105.869 38.64 105.869 32.816C105.869 27.056 104.685 22.736 102.317 19.856C100.013 16.976 96.8445 15.536 92.8125 15.536C88.8445 15.536 85.6445 16.976 83.2125 19.856C80.8445 22.672 79.6605 26.992 79.6605 32.816ZM184.313 40.496C184.313 43.952 183.705 47.12 182.489 50C181.337 52.816 179.641 55.248 177.401 57.296C175.161 59.28 172.441 60.816 169.241 61.904C166.041 62.992 162.425 63.536 158.393 63.536C154.361 63.536 150.745 62.992 147.545 61.904C144.345 60.816 141.625 59.28 139.385 57.296C137.145 55.248 135.417 52.816 134.201 50C133.049 47.12 132.473 43.952 132.473 40.496V3.824C133.177 3.696 134.297 3.536 135.833 3.344C137.369 3.088 138.841 2.96 140.249 2.96C141.721 2.96 143.001 3.088 144.089 3.344C145.241 3.536 146.201 3.92 146.969 4.496C147.737 5.072 148.313 5.872 148.697 6.896C149.081 7.92 149.273 9.264 149.273 10.928V40.208C149.273 43.28 150.105 45.68 151.769 47.408C153.497 49.136 155.705 50 158.393 50C161.145 50 163.353 49.136 165.017 47.408C166.681 45.68 167.513 43.28 167.513 40.208V3.824C168.217 3.696 169.337 3.536 170.873 3.344C172.409 3.088 173.881 2.96 175.289 2.96C176.761 2.96 178.041 3.088 179.129 3.344C180.281 3.536 181.241 3.92 182.009 4.496C182.777 5.072 183.353 5.872 183.737 6.896C184.121 7.92 184.313 9.264 184.313 10.928V40.496ZM242.609 18.032C243.313 17.712 244.401 17.36 245.873 16.976C247.409 16.528 248.945 16.304 250.481 16.304C253.169 16.304 255.409 16.72 257.201 17.552C258.993 18.32 260.081 19.472 260.465 21.008C261.169 23.632 261.809 26.096 262.385 28.4C263.025 30.64 263.633 32.816 264.209 34.928C264.785 36.976 265.329 39.024 265.841 41.072C266.417 43.12 266.961 45.264 267.473 47.504H267.953C268.529 43.6 269.041 39.888 269.489 36.368C269.937 32.784 270.353 29.296 270.737 25.904C271.121 22.448 271.505 19.056 271.889 15.728C272.273 12.336 272.657 8.912 273.041 5.456C275.409 4.112 277.937 3.44 280.625 3.44C282.993 3.44 285.041 3.952 286.769 4.976C288.497 6 289.361 7.728 289.361 10.16C289.361 11.568 289.201 13.584 288.881 16.208C288.625 18.768 288.241 21.648 287.729 24.848C287.281 28.048 286.737 31.408 286.097 34.928C285.457 38.448 284.785 41.808 284.081 45.008C283.377 48.208 282.641 51.12 281.873 53.744C281.169 56.304 280.497 58.288 279.857 59.696C278.897 60.592 277.329 61.328 275.153 61.904C272.977 62.48 270.737 62.768 268.433 62.768C265.425 62.768 262.865 62.384 260.753 61.616C258.705 60.784 257.457 59.632 257.009 58.16C256.177 55.6 255.281 52.56 254.321 49.04C253.361 45.52 252.337 41.648 251.249 37.424C250.353 41.584 249.425 45.648 248.465 49.616C247.505 53.584 246.641 56.944 245.873 59.696C244.913 60.592 243.473 61.328 241.553 61.904C239.633 62.48 237.521 62.768 235.217 62.768C232.337 62.768 229.713 62.384 227.345 61.616C225.041 60.784 223.537 59.632 222.833 58.16C222.257 57.008 221.617 55.312 220.913 53.072C220.273 50.768 219.601 48.176 218.897 45.296C218.193 42.352 217.457 39.184 216.689 35.792C215.985 32.4 215.313 29.008 214.673 25.616C214.097 22.224 213.553 18.928 213.041 15.728C212.529 12.464 212.145 9.488 211.889 6.8C212.785 5.968 214.033 5.2 215.633 4.496C217.233 3.792 218.961 3.44 220.817 3.44C223.249 3.44 225.233 3.984 226.769 5.07199C228.369 6.096 229.361 7.856 229.745 10.352C230.769 16.88 231.601 22.32 232.241 26.672C232.945 31.024 233.489 34.608 233.873 37.424C234.321 40.176 234.641 42.32 234.833 43.856C235.025 45.392 235.217 46.608 235.409 47.504H235.889C236.465 44.944 237.009 42.576 237.521 40.4C238.033 38.224 238.545 36.048 239.057 33.872C239.633 31.632 240.209 29.264 240.785 26.768C241.361 24.208 241.969 21.296 242.609 18.032ZM315.404 61.616C314.7 61.808 313.58 62 312.044 62.192C310.572 62.384 309.1 62.48 307.628 62.48C306.156 62.48 304.844 62.352 303.692 62.096C302.604 61.904 301.676 61.52 300.908 60.944C300.14 60.368 299.564 59.568 299.18 58.544C298.796 57.52 298.604 56.176 298.604 54.512V3.824C299.308 3.696 300.428 3.536 301.964 3.344C303.5 3.088 304.972 2.96 306.38 2.96C307.852 2.96 309.132 3.088 310.22 3.344C311.372 3.536 312.332 3.92 313.1 4.496C313.868 5.072 314.444 5.872 314.828 6.896C315.212 7.92 315.404 9.264 315.404 10.928V61.616ZM380.558 59.984C379.662 60.88 378.35 61.552 376.622 62C374.958 62.512 372.942 62.768 370.574 62.768C368.206 62.768 365.966 62.416 363.854 61.712C361.742 61.008 360.014 59.312 358.67 56.624L349.166 37.232C348.206 35.248 347.342 33.392 346.574 31.664C345.806 29.872 344.974 27.824 344.078 25.52L343.502 25.616C343.758 29.072 343.886 32.592 343.886 36.176C343.95 39.76 343.982 43.28 343.982 46.736V61.616C343.278 61.808 342.19 62 340.718 62.192C339.31 62.384 337.902 62.48 336.494 62.48C335.086 62.48 333.838 62.384 332.75 62.192C331.662 62 330.766 61.616 330.062 61.04C329.358 60.464 328.814 59.696 328.43 58.736C328.046 57.712 327.854 56.4 327.854 54.8V6.8C328.75 5.52 330.126 4.56 331.982 3.92C333.838 3.28 335.822 2.96 337.934 2.96C340.302 2.96 342.542 3.344 344.654 4.112C346.83 4.816 348.558 6.48 349.838 9.104L359.438 28.496C360.398 30.48 361.262 32.368 362.03 34.16C362.798 35.888 363.63 37.904 364.526 40.208L365.006 40.112C364.75 36.656 364.59 33.2 364.526 29.744C364.462 26.288 364.43 22.832 364.43 19.376V3.824C365.134 3.632 366.19 3.44 367.598 3.248C369.07 3.056 370.51 2.96 371.918 2.96C374.734 2.96 376.878 3.472 378.35 4.496C379.822 5.456 380.558 7.504 380.558 10.64V59.984Z"/>
</mask>
<path d="M42.0698 61.616C41.3658 61.808 40.2778 62 38.8058 62.192C37.3338 62.384 35.8938 62.48 34.4858 62.48C31.5418 62.48 29.3338 62 27.8618 61.04C26.3898 60.016 25.6538 57.904 25.6538 54.704V41.744C24.0538 39.376 22.3258 36.752 20.4698 33.872C18.6138 30.992 16.7898 28.048 14.9978 25.04C13.2058 22.032 11.5418 19.088 10.0058 16.208C8.46976 13.264 7.22176 10.576 6.26176 8.144C7.09376 6.99199 8.21376 5.936 9.62176 4.976C11.0938 4.016 12.8858 3.536 14.9978 3.536C17.4938 3.536 19.5098 4.048 21.0458 5.07199C22.6458 6.096 24.1498 8.016 25.5578 10.832L33.5258 26.864H34.1018C34.9978 24.88 35.7658 23.088 36.4058 21.488C37.1098 19.824 37.7818 18.192 38.4218 16.592C39.0618 14.928 39.7338 13.232 40.4378 11.504C41.1418 9.712 41.9418 7.664 42.8378 5.36C43.9898 4.784 45.2698 4.336 46.6778 4.016C48.0858 3.696 49.4298 3.536 50.7098 3.536C52.9498 3.536 54.8378 4.144 56.3738 5.36C57.9738 6.512 58.7738 8.272 58.7738 10.64C58.7738 11.408 58.6138 12.336 58.2938 13.424C57.9738 14.512 57.2378 16.176 56.0858 18.416C54.9338 20.592 53.2378 23.568 50.9978 27.344C48.8218 31.12 45.8458 36.048 42.0698 42.128V61.616ZM62.3805 32.816C62.3805 27.824 63.1485 23.408 64.6845 19.568C66.2845 15.728 68.4285 12.528 71.1165 9.96799C73.8685 7.344 77.0685 5.36 80.7165 4.016C84.4285 2.672 88.4285 2 92.7165 2C97.0045 2 100.973 2.672 104.621 4.016C108.333 5.36 111.565 7.344 114.317 9.96799C117.069 12.528 119.213 15.728 120.749 19.568C122.349 23.408 123.149 27.824 123.149 32.816C123.149 37.808 122.381 42.256 120.845 46.16C119.309 50 117.165 53.232 114.413 55.856C111.725 58.416 108.525 60.368 104.813 61.712C101.101 63.056 97.0685 63.728 92.7165 63.728C88.3645 63.728 84.3325 63.056 80.6205 61.712C76.9085 60.304 73.7085 58.288 71.0205 55.664C68.3325 53.04 66.2205 49.808 64.6845 45.968C63.1485 42.128 62.3805 37.744 62.3805 32.816ZM79.6605 32.816C79.6605 38.64 80.8445 42.992 83.2125 45.872C85.5805 48.752 88.7485 50.192 92.7165 50.192C96.7485 50.192 99.9485 48.752 102.317 45.872C104.685 42.992 105.869 38.64 105.869 32.816C105.869 27.056 104.685 22.736 102.317 19.856C100.013 16.976 96.8445 15.536 92.8125 15.536C88.8445 15.536 85.6445 16.976 83.2125 19.856C80.8445 22.672 79.6605 26.992 79.6605 32.816ZM184.313 40.496C184.313 43.952 183.705 47.12 182.489 50C181.337 52.816 179.641 55.248 177.401 57.296C175.161 59.28 172.441 60.816 169.241 61.904C166.041 62.992 162.425 63.536 158.393 63.536C154.361 63.536 150.745 62.992 147.545 61.904C144.345 60.816 141.625 59.28 139.385 57.296C137.145 55.248 135.417 52.816 134.201 50C133.049 47.12 132.473 43.952 132.473 40.496V3.824C133.177 3.696 134.297 3.536 135.833 3.344C137.369 3.088 138.841 2.96 140.249 2.96C141.721 2.96 143.001 3.088 144.089 3.344C145.241 3.536 146.201 3.92 146.969 4.496C147.737 5.072 148.313 5.872 148.697 6.896C149.081 7.92 149.273 9.264 149.273 10.928V40.208C149.273 43.28 150.105 45.68 151.769 47.408C153.497 49.136 155.705 50 158.393 50C161.145 50 163.353 49.136 165.017 47.408C166.681 45.68 167.513 43.28 167.513 40.208V3.824C168.217 3.696 169.337 3.536 170.873 3.344C172.409 3.088 173.881 2.96 175.289 2.96C176.761 2.96 178.041 3.088 179.129 3.344C180.281 3.536 181.241 3.92 182.009 4.496C182.777 5.072 183.353 5.872 183.737 6.896C184.121 7.92 184.313 9.264 184.313 10.928V40.496ZM242.609 18.032C243.313 17.712 244.401 17.36 245.873 16.976C247.409 16.528 248.945 16.304 250.481 16.304C253.169 16.304 255.409 16.72 257.201 17.552C258.993 18.32 260.081 19.472 260.465 21.008C261.169 23.632 261.809 26.096 262.385 28.4C263.025 30.64 263.633 32.816 264.209 34.928C264.785 36.976 265.329 39.024 265.841 41.072C266.417 43.12 266.961 45.264 267.473 47.504H267.953C268.529 43.6 269.041 39.888 269.489 36.368C269.937 32.784 270.353 29.296 270.737 25.904C271.121 22.448 271.505 19.056 271.889 15.728C272.273 12.336 272.657 8.912 273.041 5.456C275.409 4.112 277.937 3.44 280.625 3.44C282.993 3.44 285.041 3.952 286.769 4.976C288.497 6 289.361 7.728 289.361 10.16C289.361 11.568 289.201 13.584 288.881 16.208C288.625 18.768 288.241 21.648 287.729 24.848C287.281 28.048 286.737 31.408 286.097 34.928C285.457 38.448 284.785 41.808 284.081 45.008C283.377 48.208 282.641 51.12 281.873 53.744C281.169 56.304 280.497 58.288 279.857 59.696C278.897 60.592 277.329 61.328 275.153 61.904C272.977 62.48 270.737 62.768 268.433 62.768C265.425 62.768 262.865 62.384 260.753 61.616C258.705 60.784 257.457 59.632 257.009 58.16C256.177 55.6 255.281 52.56 254.321 49.04C253.361 45.52 252.337 41.648 251.249 37.424C250.353 41.584 249.425 45.648 248.465 49.616C247.505 53.584 246.641 56.944 245.873 59.696C244.913 60.592 243.473 61.328 241.553 61.904C239.633 62.48 237.521 62.768 235.217 62.768C232.337 62.768 229.713 62.384 227.345 61.616C225.041 60.784 223.537 59.632 222.833 58.16C222.257 57.008 221.617 55.312 220.913 53.072C220.273 50.768 219.601 48.176 218.897 45.296C218.193 42.352 217.457 39.184 216.689 35.792C215.985 32.4 215.313 29.008 214.673 25.616C214.097 22.224 213.553 18.928 213.041 15.728C212.529 12.464 212.145 9.488 211.889 6.8C212.785 5.968 214.033 5.2 215.633 4.496C217.233 3.792 218.961 3.44 220.817 3.44C223.249 3.44 225.233 3.984 226.769 5.07199C228.369 6.096 229.361 7.856 229.745 10.352C230.769 16.88 231.601 22.32 232.241 26.672C232.945 31.024 233.489 34.608 233.873 37.424C234.321 40.176 234.641 42.32 234.833 43.856C235.025 45.392 235.217 46.608 235.409 47.504H235.889C236.465 44.944 237.009 42.576 237.521 40.4C238.033 38.224 238.545 36.048 239.057 33.872C239.633 31.632 240.209 29.264 240.785 26.768C241.361 24.208 241.969 21.296 242.609 18.032ZM315.404 61.616C314.7 61.808 313.58 62 312.044 62.192C310.572 62.384 309.1 62.48 307.628 62.48C306.156 62.48 304.844 62.352 303.692 62.096C302.604 61.904 301.676 61.52 300.908 60.944C300.14 60.368 299.564 59.568 299.18 58.544C298.796 57.52 298.604 56.176 298.604 54.512V3.824C299.308 3.696 300.428 3.536 301.964 3.344C303.5 3.088 304.972 2.96 306.38 2.96C307.852 2.96 309.132 3.088 310.22 3.344C311.372 3.536 312.332 3.92 313.1 4.496C313.868 5.072 314.444 5.872 314.828 6.896C315.212 7.92 315.404 9.264 315.404 10.928V61.616ZM380.558 59.984C379.662 60.88 378.35 61.552 376.622 62C374.958 62.512 372.942 62.768 370.574 62.768C368.206 62.768 365.966 62.416 363.854 61.712C361.742 61.008 360.014 59.312 358.67 56.624L349.166 37.232C348.206 35.248 347.342 33.392 346.574 31.664C345.806 29.872 344.974 27.824 344.078 25.52L343.502 25.616C343.758 29.072 343.886 32.592 343.886 36.176C343.95 39.76 343.982 43.28 343.982 46.736V61.616C343.278 61.808 342.19 62 340.718 62.192C339.31 62.384 337.902 62.48 336.494 62.48C335.086 62.48 333.838 62.384 332.75 62.192C331.662 62 330.766 61.616 330.062 61.04C329.358 60.464 328.814 59.696 328.43 58.736C328.046 57.712 327.854 56.4 327.854 54.8V6.8C328.75 5.52 330.126 4.56 331.982 3.92C333.838 3.28 335.822 2.96 337.934 2.96C340.302 2.96 342.542 3.344 344.654 4.112C346.83 4.816 348.558 6.48 349.838 9.104L359.438 28.496C360.398 30.48 361.262 32.368 362.03 34.16C362.798 35.888 363.63 37.904 364.526 40.208L365.006 40.112C364.75 36.656 364.59 33.2 364.526 29.744C364.462 26.288 364.43 22.832 364.43 19.376V3.824C365.134 3.632 366.19 3.44 367.598 3.248C369.07 3.056 370.51 2.96 371.918 2.96C374.734 2.96 376.878 3.472 378.35 4.496C379.822 5.456 380.558 7.504 380.558 10.64V59.984Z" fill="url(#paint5_linear_7013_44297)"/>
<path d="M42.0698 61.616L42.596 63.5455L44.0698 63.1436V61.616H42.0698ZM38.8058 62.192L38.5471 60.2088L38.8058 62.192ZM27.8618 61.04L26.7196 62.6818L26.7442 62.6989L26.7692 62.7152L27.8618 61.04ZM25.6538 41.744H27.6538V41.1317L27.3109 40.6243L25.6538 41.744ZM20.4698 33.872L18.7886 34.9554L20.4698 33.872ZM14.9978 25.04L13.2796 26.0636V26.0636L14.9978 25.04ZM10.0058 16.208L8.23259 17.1331L8.23678 17.1412L8.24105 17.1492L10.0058 16.208ZM6.26176 8.144L4.6404 6.97301L3.99959 7.86029L4.40145 8.87833L6.26176 8.144ZM9.62176 4.976L8.52922 3.30077L8.51204 3.31198L8.49509 3.32354L9.62176 4.976ZM21.0458 5.07199L19.9364 6.7361L19.9519 6.74646L19.9676 6.75654L21.0458 5.07199ZM25.5578 10.832L27.3488 9.94186L27.3466 9.93757L25.5578 10.832ZM33.5258 26.864L31.7348 27.7541L32.2864 28.864H33.5258V26.864ZM34.1018 26.864V28.864H35.393L35.9245 27.6872L34.1018 26.864ZM36.4058 21.488L34.5638 20.7087L34.5561 20.7269L34.5488 20.7452L36.4058 21.488ZM38.4218 16.592L40.2787 17.3348L40.2837 17.3224L40.2885 17.31L38.4218 16.592ZM40.4378 11.504L42.2899 12.2586L42.2947 12.247L42.2993 12.2353L40.4378 11.504ZM42.8378 5.36L41.9433 3.57114L41.2534 3.91613L40.9738 4.6351L42.8378 5.36ZM46.6778 4.016L47.121 5.96626L46.6778 4.016ZM56.3738 5.36L55.1324 6.92809L55.1681 6.95641L55.2052 6.98307L56.3738 5.36ZM58.2938 13.424L56.375 12.8597V12.8597L58.2938 13.424ZM56.0858 18.416L57.8533 19.3518L57.8589 19.3413L57.8643 19.3307L56.0858 18.416ZM50.9978 27.344L49.2776 26.3236L49.2712 26.3345L49.2649 26.3454L50.9978 27.344ZM42.0698 42.128L40.3708 41.0728L40.0698 41.5575V42.128H42.0698ZM42.0698 61.616L41.5435 59.6865C40.9772 59.8409 40.0011 60.0191 38.5471 60.2088L38.8058 62.192L39.0644 64.1752C40.5545 63.9809 41.7543 63.7751 42.596 63.5455L42.0698 61.616ZM38.8058 62.192L38.5471 60.2088C37.1562 60.3902 35.8027 60.48 34.4858 60.48V62.48V64.48C35.9848 64.48 37.5113 64.3778 39.0644 64.1752L38.8058 62.192ZM34.4858 62.48V60.48C31.6953 60.48 29.9489 60.0135 28.9543 59.3648L27.8618 61.04L26.7692 62.7152C28.7186 63.9865 31.3882 64.48 34.4858 64.48V62.48ZM27.8618 61.04L29.0039 59.3982C28.3787 58.9633 27.6538 57.7489 27.6538 54.704H25.6538H23.6538C23.6538 58.0591 24.4009 61.0687 26.7196 62.6818L27.8618 61.04ZM25.6538 54.704H27.6538V41.744H25.6538H23.6538V54.704H25.6538ZM25.6538 41.744L27.3109 40.6243C25.7205 38.2704 24.0005 35.6587 22.1509 32.7886L20.4698 33.872L18.7886 34.9554C20.651 37.8453 22.3871 40.4816 23.9966 42.8637L25.6538 41.744ZM20.4698 33.872L22.1509 32.7886C20.3079 29.9287 18.4962 27.0047 16.716 24.0164L14.9978 25.04L13.2796 26.0636C15.0833 29.0913 16.9196 32.0553 18.7886 34.9554L20.4698 33.872ZM14.9978 25.04L16.716 24.0164C14.939 21.0336 13.2906 18.1171 11.7705 15.2668L10.0058 16.208L8.24105 17.1492C9.79292 20.0589 11.4726 23.0304 13.2796 26.0636L14.9978 25.04ZM10.0058 16.208L11.7789 15.2829C10.2671 12.3852 9.05062 9.76199 8.12207 7.40966L6.26176 8.144L4.40145 8.87833C5.3929 11.39 6.6724 14.1428 8.23259 17.1331L10.0058 16.208ZM6.26176 8.144L7.88312 9.31498C8.55536 8.38418 9.49488 7.48314 10.7484 6.62845L9.62176 4.976L8.49509 3.32354C6.93263 4.38885 5.63216 5.59981 4.6404 6.97301L6.26176 8.144ZM9.62176 4.976L10.7143 6.65122C11.8008 5.94265 13.1945 5.536 14.9978 5.536V3.536V1.536C12.577 1.536 10.3867 2.08935 8.52922 3.30077L9.62176 4.976ZM14.9978 3.536V5.536C17.2345 5.536 18.826 5.99586 19.9364 6.7361L21.0458 5.07199L22.1552 3.40789C20.1935 2.10013 17.753 1.536 14.9978 1.536V3.536ZM21.0458 5.07199L19.9676 6.75654C21.1249 7.4972 22.4277 9.04401 23.7689 11.7264L25.5578 10.832L27.3466 9.93757C25.8718 6.98799 24.1666 4.6948 22.1239 3.38745L21.0458 5.07199ZM25.5578 10.832L23.7668 11.7221L31.7348 27.7541L33.5258 26.864L35.3168 25.9739L27.3488 9.94186L25.5578 10.832ZM33.5258 26.864V28.864H34.1018V26.864V24.864H33.5258V26.864ZM34.1018 26.864L35.9245 27.6872C36.8295 25.6832 37.6095 23.8638 38.2627 22.2308L36.4058 21.488L34.5488 20.7452C33.922 22.3122 33.166 24.0768 32.279 26.0408L34.1018 26.864ZM36.4058 21.488L38.2477 22.2673C38.9566 20.5917 39.6336 18.9476 40.2787 17.3348L38.4218 16.592L36.5648 15.8492C35.9299 17.4364 35.2629 19.0563 34.5638 20.7087L36.4058 21.488ZM38.4218 16.592L40.2885 17.31C40.9235 15.6588 41.5907 13.975 42.2899 12.2586L40.4378 11.504L38.5856 10.7494C37.8768 12.489 37.2 14.1972 36.5551 15.874L38.4218 16.592ZM40.4378 11.504L42.2993 12.2353C43.0043 10.4407 43.8052 8.39046 44.7018 6.08489L42.8378 5.36L40.9738 4.6351C40.0784 6.93753 39.2792 8.98333 38.5763 10.7727L40.4378 11.504ZM42.8378 5.36L43.7322 7.14885C44.7247 6.65258 45.8508 6.25495 47.121 5.96626L46.6778 4.016L46.2345 2.06573C44.6888 2.41704 43.2548 2.91541 41.9433 3.57114L42.8378 5.36ZM46.6778 4.016L47.121 5.96626C48.4018 5.67518 49.5965 5.536 50.7098 5.536V3.536V1.536C49.263 1.536 47.7697 1.71681 46.2345 2.06573L46.6778 4.016ZM50.7098 3.536V5.536C52.567 5.536 53.9995 6.03122 55.1324 6.92809L56.3738 5.36L57.6152 3.79191C55.676 2.25677 53.3325 1.536 50.7098 1.536V3.536ZM56.3738 5.36L55.2052 6.98307C56.1747 7.68112 56.7738 8.7688 56.7738 10.64H58.7738H60.7738C60.7738 7.7752 59.7728 5.34287 57.5424 3.73693L56.3738 5.36ZM58.7738 10.64H56.7738C56.7738 11.1495 56.6642 11.8764 56.375 12.8597L58.2938 13.424L60.2125 13.9883C60.5633 12.7956 60.7738 11.6665 60.7738 10.64H58.7738ZM58.2938 13.424L56.375 12.8597C56.1126 13.7519 55.4538 15.2717 54.3072 17.5013L56.0858 18.416L57.8643 19.3307C59.0217 17.0803 59.8349 15.272 60.2125 13.9883L58.2938 13.424ZM56.0858 18.416L54.3182 17.4802C53.1886 19.6138 51.5117 22.5575 49.2776 26.3236L50.9978 27.344L52.7179 28.3644C54.9638 24.5784 56.6789 21.5702 57.8533 19.3518L56.0858 18.416ZM50.9978 27.344L49.2649 26.3454C47.1046 30.0942 44.1415 35.0013 40.3708 41.0728L42.0698 42.128L43.7688 43.1832C47.55 37.0947 50.539 32.1458 52.7306 28.3426L50.9978 27.344ZM42.0698 42.128H40.0698V61.616H42.0698H44.0698V42.128H42.0698ZM64.6845 19.568L62.8384 18.7988L62.8329 18.812L62.8276 18.8252L64.6845 19.568ZM71.1165 9.96799L72.4958 11.4163L72.4967 11.4155L71.1165 9.96799ZM80.7165 4.016L80.0356 2.13544L80.0251 2.13931L80.7165 4.016ZM104.621 4.016L103.929 5.89271L103.94 5.89653L104.621 4.016ZM114.317 9.96799L112.936 11.4155L112.945 11.424L112.954 11.4324L114.317 9.96799ZM120.749 19.568L118.892 20.3108L118.897 20.324L118.902 20.3372L120.749 19.568ZM120.845 46.16L122.701 46.9028L122.706 46.8922L120.845 46.16ZM114.413 55.856L115.792 57.3043L115.793 57.3035L114.413 55.856ZM104.813 61.712L104.132 59.8315L104.813 61.712ZM80.6205 61.712L79.9112 63.582L79.9254 63.5874L79.9396 63.5925L80.6205 61.712ZM71.0205 55.664L69.6234 57.0951L71.0205 55.664ZM64.6845 45.968L66.5415 45.2252L64.6845 45.968ZM83.2125 45.872L84.7574 44.6018L83.2125 45.872ZM102.317 45.872L100.772 44.6018L102.317 45.872ZM102.317 19.856L100.755 21.1054L100.763 21.1159L100.772 21.1262L102.317 19.856ZM83.2125 19.856L81.6844 18.5656L81.6818 18.5688L83.2125 19.856ZM62.3805 32.816H64.3805C64.3805 28.0271 65.1173 23.8711 66.5415 20.3108L64.6845 19.568L62.8276 18.8252C61.1797 22.9449 60.3805 27.6209 60.3805 32.816H62.3805ZM64.6845 19.568L66.5307 20.3372C68.0368 16.7225 70.0319 13.7629 72.4958 11.4163L71.1165 9.96799L69.7372 8.51972C66.8252 11.2931 64.5322 14.7335 62.8384 18.7988L64.6845 19.568ZM71.1165 9.96799L72.4967 11.4155C75.0463 8.9844 78.0105 7.14436 81.4079 5.89268L80.7165 4.016L80.0251 2.13931C76.1265 3.57564 72.6907 5.7036 69.7364 8.52052L71.1165 9.96799ZM80.7165 4.016L81.3974 5.89653C84.873 4.63811 88.6407 4 92.7165 4V2V0C88.2164 0 83.984 0.705883 80.0356 2.13546L80.7165 4.016ZM92.7165 2V4C96.7928 4 100.524 4.63823 103.929 5.89268L104.621 4.016L105.312 2.13931C101.421 0.70577 97.2162 0 92.7165 0V2ZM104.621 4.016L103.94 5.89653C107.401 7.14987 110.393 8.99005 112.936 11.4155L114.317 9.96799L115.697 8.52052C112.736 5.69794 109.264 3.57012 105.301 2.13547L104.621 4.016ZM114.317 9.96799L112.954 11.4324C115.469 13.7718 117.454 16.7171 118.892 20.3108L120.749 19.568L122.605 18.8252C120.971 14.7389 118.668 11.2842 115.679 8.50362L114.317 9.96799ZM120.749 19.568L118.902 20.3372C120.383 23.8899 121.149 28.0364 121.149 32.816H123.149H125.149C125.149 27.6116 124.314 22.9261 122.595 18.7988L120.749 19.568ZM123.149 32.816H121.149C121.149 37.6039 120.412 41.7967 118.983 45.4278L120.845 46.16L122.706 46.8922C124.349 42.7153 125.149 38.0121 125.149 32.816H123.149ZM120.845 46.16L118.988 45.4172C117.549 49.0145 115.559 51.9994 113.032 54.4085L114.413 55.856L115.793 57.3035C118.77 54.4646 121.068 50.9855 122.701 46.9028L120.845 46.16ZM114.413 55.856L113.033 54.4077C110.558 56.7649 107.6 58.5756 104.132 59.8315L104.813 61.712L105.493 63.5925C109.449 62.1604 112.891 60.0671 115.792 57.3043L114.413 55.856ZM104.813 61.712L104.132 59.8315C100.659 61.0887 96.86 61.728 92.7165 61.728V63.728V65.728C97.277 65.728 101.542 65.0233 105.493 63.5925L104.813 61.712ZM92.7165 63.728V61.728C88.573 61.728 84.7739 61.0887 81.3014 59.8315L80.6205 61.712L79.9396 63.5925C83.8912 65.0233 88.156 65.728 92.7165 65.728V63.728ZM80.6205 61.712L81.3298 59.842C77.8599 58.5258 74.8978 56.6541 72.4176 54.2329L71.0205 55.664L69.6234 57.0951C72.5192 59.9219 75.9571 62.0822 79.9112 63.582L80.6205 61.712ZM71.0205 55.664L72.4176 54.2329C69.9486 51.8226 67.9844 48.8326 66.5415 45.2252L64.6845 45.968L62.8276 46.7108C64.4566 50.7834 66.7165 54.2574 69.6234 57.0951L71.0205 55.664ZM64.6845 45.968L66.5415 45.2252C65.1162 41.662 64.3805 37.5373 64.3805 32.816H62.3805H60.3805C60.3805 37.9507 61.1808 42.594 62.8276 46.7108L64.6845 45.968ZM79.6605 32.816H77.6605C77.6605 38.8571 78.8798 43.7516 81.6677 47.1422L83.2125 45.872L84.7574 44.6018C82.8092 42.2324 81.6605 38.4229 81.6605 32.816H79.6605ZM83.2125 45.872L81.6677 47.1422C84.4427 50.5172 88.1944 52.192 92.7165 52.192V50.192V48.192C89.3027 48.192 86.7184 46.9868 84.7574 44.6018L83.2125 45.872ZM92.7165 50.192V52.192C97.2911 52.192 101.08 50.5255 103.861 47.1422L102.317 45.872L100.772 44.6018C98.8175 46.9785 96.2059 48.192 92.7165 48.192V50.192ZM102.317 45.872L103.861 47.1422C106.649 43.7516 107.869 38.8571 107.869 32.816H105.869H103.869C103.869 38.4229 102.72 42.2324 100.772 44.6018L102.317 45.872ZM105.869 32.816H107.869C107.869 26.8325 106.647 21.9732 103.861 18.5858L102.317 19.856L100.772 21.1262C102.722 23.4988 103.869 27.2795 103.869 32.816H105.869ZM102.317 19.856L103.878 18.6066C101.156 15.2038 97.3874 13.536 92.8125 13.536V15.536V17.536C96.3017 17.536 98.869 18.7482 100.755 21.1054L102.317 19.856ZM92.8125 15.536V13.536C88.291 13.536 84.5188 15.2092 81.6844 18.5656L83.2125 19.856L84.7406 21.1464C86.7702 18.7428 89.398 17.536 92.8125 17.536V15.536ZM83.2125 19.856L81.6818 18.5688C78.8778 21.9033 77.6605 26.78 77.6605 32.816H79.6605H81.6605C81.6605 27.204 82.8112 23.4407 84.7432 21.1432L83.2125 19.856ZM182.489 50L180.646 49.2221L180.642 49.2324L180.637 49.2427L182.489 50ZM177.401 57.296L178.727 58.7932L178.738 58.7827L178.75 58.7721L177.401 57.296ZM169.241 61.904L169.884 63.7975L169.241 61.904ZM147.545 61.904L146.901 63.7975H146.901L147.545 61.904ZM139.385 57.296L138.035 58.7721L138.047 58.7827L138.058 58.7932L139.385 57.296ZM134.201 50L132.344 50.7428L132.354 50.768L132.364 50.7929L134.201 50ZM132.473 3.824L132.115 1.85626L130.473 2.15485V3.824H132.473ZM135.833 3.344L136.081 5.32856L136.121 5.32349L136.161 5.31679L135.833 3.344ZM144.089 3.344L143.63 5.29083L143.695 5.30594L143.76 5.31679L144.089 3.344ZM146.969 4.496L148.169 2.896V2.896L146.969 4.496ZM148.697 6.896L146.824 7.59825V7.59825L148.697 6.896ZM151.769 47.408L150.328 48.7953L150.341 48.8089L150.354 48.8222L151.769 47.408ZM165.017 47.408L163.576 46.0207L165.017 47.408ZM167.513 3.824L167.155 1.85626L165.513 2.15485V3.824H167.513ZM170.873 3.344L171.121 5.32856L171.161 5.32349L171.201 5.31679L170.873 3.344ZM179.129 3.344L178.67 5.29083L178.735 5.30594L178.8 5.31679L179.129 3.344ZM182.009 4.496L180.809 6.09599L180.809 6.096L182.009 4.496ZM183.737 6.896L181.864 7.59824V7.59825L183.737 6.896ZM184.313 40.496H182.313C182.313 43.7131 181.748 46.613 180.646 49.2221L182.489 50L184.331 50.7779C185.661 47.627 186.313 44.1909 186.313 40.496H184.313ZM182.489 50L180.637 49.2427C179.597 51.7857 178.072 53.972 176.051 55.8199L177.401 57.296L178.75 58.7721C181.209 56.524 183.076 53.8463 184.34 50.7573L182.489 50ZM177.401 57.296L176.074 55.7988C174.057 57.5853 171.578 58.9969 168.597 60.0105L169.241 61.904L169.884 63.7975C173.303 62.6351 176.264 60.9747 178.727 58.7932L177.401 57.296ZM169.241 61.904L168.597 60.0105C165.64 61.0159 162.247 61.536 158.393 61.536V63.536V65.536C162.602 65.536 166.441 64.9681 169.884 63.7975L169.241 61.904ZM158.393 63.536V61.536C154.538 61.536 151.145 61.0159 148.188 60.0105L147.545 61.904L146.901 63.7975C150.344 64.9681 154.183 65.536 158.393 65.536V63.536ZM147.545 61.904L148.188 60.0105C145.207 58.9969 142.728 57.5853 140.711 55.7988L139.385 57.296L138.058 58.7932C140.521 60.9747 143.482 62.6351 146.901 63.7975L147.545 61.904ZM139.385 57.296L140.734 55.8199C138.705 53.9648 137.142 51.7664 136.037 49.2071L134.201 50L132.364 50.7929C133.691 53.8656 135.584 56.5312 138.035 58.7721L139.385 57.296ZM134.201 50L136.057 49.2572C135.01 46.639 134.473 43.7266 134.473 40.496H132.473H130.473C130.473 44.1774 131.087 47.601 132.344 50.7428L134.201 50ZM132.473 40.496H134.473V3.824H132.473H130.473V40.496H132.473ZM132.473 3.824L132.83 5.79174C133.476 5.67433 134.549 5.51996 136.081 5.32856L135.833 3.344L135.584 1.35944C134.044 1.55203 132.877 1.71766 132.115 1.85626L132.473 3.824ZM135.833 3.344L136.161 5.31679C137.6 5.07702 138.962 4.96 140.249 4.96V2.96V0.959999C138.719 0.959999 137.137 1.09898 135.504 1.37121L135.833 3.344ZM140.249 2.96V4.96C141.612 4.96 142.731 5.07925 143.63 5.29083L144.089 3.344L144.547 1.39717C143.27 1.09675 141.829 0.959999 140.249 0.959999V2.96ZM144.089 3.344L143.76 5.31679C144.663 5.46738 145.307 5.74956 145.769 6.096L146.969 4.496L148.169 2.896C147.094 2.09043 145.818 1.60462 144.417 1.37121L144.089 3.344ZM146.969 4.496L145.769 6.096C146.19 6.41239 146.555 6.88048 146.824 7.59825L148.697 6.896L150.569 6.19375C150.07 4.86351 149.283 3.73161 148.169 2.896L146.969 4.496ZM148.697 6.896L146.824 7.59825C147.092 8.31242 147.273 9.39175 147.273 10.928H149.273H151.273C151.273 9.13625 151.069 7.52758 150.569 6.19375L148.697 6.896ZM149.273 10.928H147.273V40.208H149.273H151.273V10.928H149.273ZM149.273 40.208H147.273C147.273 43.6462 148.212 46.5983 150.328 48.7953L151.769 47.408L153.209 46.0207C151.997 44.7617 151.273 42.9138 151.273 40.208H149.273ZM151.769 47.408L150.354 48.8222C152.497 50.9646 155.232 52 158.393 52V50V48C156.177 48 154.496 47.3074 153.183 45.9938L151.769 47.408ZM158.393 50V52C161.601 52 164.36 50.9735 166.457 48.7953L165.017 47.408L163.576 46.0207C162.345 47.2985 160.688 48 158.393 48V50ZM165.017 47.408L166.457 48.7953C168.573 46.5983 169.513 43.6462 169.513 40.208H167.513H165.513C165.513 42.9138 164.788 44.7617 163.576 46.0207L165.017 47.408ZM167.513 40.208H169.513V3.824H167.513H165.513V40.208H167.513ZM167.513 3.824L167.87 5.79174C168.516 5.67433 169.589 5.51996 171.121 5.32856L170.873 3.344L170.624 1.35944C169.084 1.55203 167.917 1.71766 167.155 1.85626L167.513 3.824ZM170.873 3.344L171.201 5.31679C172.64 5.07702 174.002 4.96 175.289 4.96V2.96V0.959999C173.759 0.959999 172.177 1.09898 170.544 1.37121L170.873 3.344ZM175.289 2.96V4.96C176.652 4.96 177.771 5.07925 178.67 5.29083L179.129 3.344L179.587 1.39717C178.31 1.09675 176.869 0.959999 175.289 0.959999V2.96ZM179.129 3.344L178.8 5.31679C179.703 5.46738 180.347 5.74956 180.809 6.09599L182.009 4.496L183.209 2.896C182.134 2.09043 180.858 1.60462 179.457 1.37121L179.129 3.344ZM182.009 4.496L180.809 6.096C181.23 6.41239 181.595 6.88048 181.864 7.59824L183.737 6.896L185.609 6.19376C185.11 4.86351 184.323 3.7316 183.209 2.896L182.009 4.496ZM183.737 6.896L181.864 7.59825C182.132 8.31242 182.313 9.39175 182.313 10.928H184.313H186.313C186.313 9.13625 186.109 7.52758 185.609 6.19375L183.737 6.896ZM184.313 10.928H182.313V40.496H184.313H186.313V10.928H184.313ZM242.609 18.032L241.782 16.2113L240.845 16.6372L240.647 17.6472L242.609 18.032ZM245.873 16.976L246.378 18.9112L246.406 18.904L246.433 18.896L245.873 16.976ZM257.201 17.552L256.359 19.366L256.386 19.3786L256.413 19.3903L257.201 17.552ZM260.465 21.008L258.525 21.4931L258.529 21.5097L258.534 21.5263L260.465 21.008ZM262.385 28.4L260.445 28.8851L260.453 28.9174L260.462 28.9494L262.385 28.4ZM264.209 34.928L262.28 35.4542L262.282 35.4619L262.284 35.4695L264.209 34.928ZM265.841 41.072L263.901 41.5571L263.908 41.5854L263.916 41.6135L265.841 41.072ZM267.473 47.504L265.524 47.9496L265.879 49.504H267.473V47.504ZM267.953 47.504V49.504H269.68L269.932 47.7959L267.953 47.504ZM269.489 36.368L271.473 36.6205L271.474 36.6161L269.489 36.368ZM270.737 25.904L272.725 26.129L272.725 26.1249L270.737 25.904ZM271.889 15.728L273.876 15.9572L273.877 15.953L271.889 15.728ZM273.041 5.456L272.054 3.71662L271.166 4.22052L271.053 5.23513L273.041 5.456ZM286.769 4.976L287.789 3.25541V3.25541L286.769 4.976ZM288.881 16.208L286.896 15.9659L286.893 15.9874L286.891 16.009L288.881 16.208ZM287.729 24.848L285.754 24.532L285.751 24.5513L285.749 24.5707L287.729 24.848ZM286.097 34.928L288.065 35.2858L286.097 34.928ZM284.081 45.008L282.128 44.5783V44.5783L284.081 45.008ZM281.873 53.744L279.954 53.1822L279.949 53.1979L279.945 53.2137L281.873 53.744ZM279.857 59.696L281.222 61.1581L281.513 60.8863L281.678 60.5236L279.857 59.696ZM275.153 61.904L274.641 59.9706L275.153 61.904ZM260.753 61.616L260.001 63.4689L260.035 63.4829L260.07 63.4956L260.753 61.616ZM257.009 58.16L258.923 57.5777L258.917 57.5597L258.911 57.5418L257.009 58.16ZM254.321 49.04L252.392 49.5662L254.321 49.04ZM251.249 37.424L253.186 36.9251L249.294 37.0029L251.249 37.424ZM248.465 49.616L246.521 49.1457V49.1457L248.465 49.616ZM245.873 59.696L247.238 61.1581L247.649 60.7748L247.8 60.2336L245.873 59.696ZM241.553 61.904L242.128 63.8197L241.553 61.904ZM227.345 61.616L226.666 63.4971L226.697 63.5083L226.728 63.5184L227.345 61.616ZM222.833 58.16L224.638 57.2971L224.63 57.2813L224.622 57.2656L222.833 58.16ZM220.913 53.072L218.986 53.6073L218.995 53.6396L219.005 53.6717L220.913 53.072ZM218.897 45.296L216.952 45.7612L216.954 45.7709L218.897 45.296ZM216.689 35.792L214.731 36.1984L214.735 36.2161L214.739 36.2337L216.689 35.792ZM214.673 25.616L212.701 25.9508L212.705 25.9689L212.708 25.9868L214.673 25.616ZM213.041 15.728L211.065 16.0379L211.066 16.044L213.041 15.728ZM211.889 6.8L210.528 5.33441L209.805 6.00644L209.898 6.98961L211.889 6.8ZM215.633 4.496L214.828 2.66537L214.828 2.66537L215.633 4.496ZM226.769 5.07199L225.613 6.70405L225.652 6.73121L225.691 6.75654L226.769 5.07199ZM229.745 10.352L227.769 10.6561L227.769 10.6619L229.745 10.352ZM232.241 26.672L230.263 26.963L230.265 26.9772L230.267 26.9914L232.241 26.672ZM233.873 37.424L231.892 37.6942L231.895 37.7198L231.899 37.7453L233.873 37.424ZM234.833 43.856L232.849 44.1041V44.1041L234.833 43.856ZM235.409 47.504L233.454 47.9231L233.792 49.504H235.409V47.504ZM235.889 47.504V49.504H237.489L237.84 47.943L235.889 47.504ZM237.521 40.4L239.468 40.8581L237.521 40.4ZM239.057 33.872L237.12 33.3739L237.115 33.3939L237.11 33.4139L239.057 33.872ZM240.785 26.768L242.734 27.2177L242.736 27.207L240.785 26.768ZM242.609 18.032L243.437 19.8527C243.98 19.606 244.932 19.2884 246.378 18.9112L245.873 16.976L245.368 15.0408C243.87 15.4316 242.647 15.818 241.782 16.2113L242.609 18.032ZM245.873 16.976L246.433 18.896C247.795 18.4988 249.143 18.304 250.481 18.304V16.304V14.304C248.748 14.304 247.024 14.5572 245.313 15.056L245.873 16.976ZM250.481 16.304V18.304C252.977 18.304 254.908 18.6923 256.359 19.366L257.201 17.552L258.043 15.738C255.91 14.7477 253.361 14.304 250.481 14.304V16.304ZM257.201 17.552L256.413 19.3903C257.779 19.9754 258.328 20.7041 258.525 21.4931L260.465 21.008L262.406 20.5229C261.835 18.2399 260.208 16.6646 257.989 15.7137L257.201 17.552ZM260.465 21.008L258.534 21.5263C259.235 24.1408 259.872 26.5936 260.445 28.8851L262.385 28.4L264.326 27.9149C263.746 25.5984 263.103 23.1232 262.397 20.4897L260.465 21.008ZM262.385 28.4L260.462 28.9494C261.1 31.1822 261.706 33.3505 262.28 35.4542L264.209 34.928L266.139 34.4018C265.561 32.2815 264.95 30.0978 264.308 27.8506L262.385 28.4ZM264.209 34.928L262.284 35.4695C262.855 37.4989 263.394 39.5281 263.901 41.5571L265.841 41.072L267.782 40.5869C267.265 38.5199 266.716 36.4531 266.135 34.3865L264.209 34.928ZM265.841 41.072L263.916 41.6135C264.482 43.6274 265.018 45.7393 265.524 47.9496L267.473 47.504L269.423 47.0583C268.904 44.7887 268.352 42.6126 267.767 40.5305L265.841 41.072ZM267.473 47.504V49.504H267.953V47.504V45.504H267.473V47.504ZM267.953 47.504L269.932 47.7959C270.51 43.8802 271.023 40.155 271.473 36.6205L269.489 36.368L267.505 36.1155C267.059 39.621 266.549 43.3198 265.975 47.2121L267.953 47.504ZM269.489 36.368L271.474 36.6161C271.923 33.0248 272.34 29.5291 272.725 26.129L270.737 25.904L268.75 25.679C268.367 29.0629 267.952 32.5432 267.505 36.1199L269.489 36.368ZM270.737 25.904L272.725 26.1249C273.109 22.6716 273.492 19.2823 273.876 15.9572L271.889 15.728L269.902 15.4988C269.518 18.8296 269.134 22.2244 268.749 25.6831L270.737 25.904ZM271.889 15.728L273.877 15.953C274.261 12.5596 274.645 9.13421 275.029 5.67686L273.041 5.456L271.053 5.23513C270.67 8.68979 270.286 12.1124 269.902 15.503L271.889 15.728ZM273.041 5.456L274.028 7.19537C276.1 6.01988 278.288 5.44 280.625 5.44V3.44V1.44C277.587 1.44 274.719 2.20412 272.054 3.71662L273.041 5.456ZM280.625 3.44V5.44C282.699 5.44 284.382 5.8859 285.75 6.69658L286.769 4.976L287.789 3.25541C285.701 2.0181 283.287 1.44 280.625 1.44V3.44ZM286.769 4.976L285.75 6.69658C286.734 7.27961 287.361 8.26 287.361 10.16H289.361H291.361C291.361 7.196 290.261 4.72039 287.789 3.25541L286.769 4.976ZM289.361 10.16H287.361C287.361 11.4451 287.213 13.3656 286.896 15.9659L288.881 16.208L290.867 16.4501C291.189 13.8024 291.361 11.6909 291.361 10.16H289.361ZM288.881 16.208L286.891 16.009C286.64 18.5214 286.262 21.3614 285.754 24.532L287.729 24.848L289.704 25.164C290.221 21.9346 290.611 19.0146 290.871 16.407L288.881 16.208ZM287.729 24.848L285.749 24.5707C285.305 27.7411 284.765 31.0742 284.13 34.5702L286.097 34.928L288.065 35.2858C288.709 31.7418 289.258 28.3549 289.71 25.1253L287.729 24.848ZM286.097 34.928L284.13 34.5702C283.493 38.0683 282.826 41.4042 282.128 44.5783L284.081 45.008L286.035 45.4377C286.744 42.2118 287.421 38.8277 288.065 35.2858L286.097 34.928ZM284.081 45.008L282.128 44.5783C281.432 47.7423 280.707 50.6094 279.954 53.1822L281.873 53.744L283.793 54.3058C284.576 51.6306 285.323 48.6737 286.035 45.4377L284.081 45.008ZM281.873 53.744L279.945 53.2137C279.252 55.733 278.613 57.6007 278.037 58.8684L279.857 59.696L281.678 60.5236C282.382 58.9753 283.086 56.875 283.802 54.2743L281.873 53.744ZM279.857 59.696L278.493 58.2339C277.889 58.7974 276.697 59.4265 274.641 59.9706L275.153 61.904L275.665 63.8374C277.962 63.2295 279.906 62.3866 281.222 61.1581L279.857 59.696ZM275.153 61.904L274.641 59.9706C272.636 60.5013 270.569 60.768 268.433 60.768V62.768V64.768C270.906 64.768 273.318 64.4587 275.665 63.8374L275.153 61.904ZM268.433 62.768V60.768C265.584 60.768 263.27 60.4029 261.437 59.7364L260.753 61.616L260.07 63.4956C262.461 64.3651 265.266 64.768 268.433 64.768V62.768ZM260.753 61.616L261.506 59.7631C259.763 59.0549 259.128 58.2539 258.923 57.5777L257.009 58.16L255.096 58.7423C255.786 61.0101 257.648 62.5131 260.001 63.4689L260.753 61.616ZM257.009 58.16L258.911 57.5418C258.092 55.0207 257.205 52.0129 256.251 48.5138L254.321 49.04L252.392 49.5662C253.357 53.1071 254.263 56.1793 255.107 58.7782L257.009 58.16ZM254.321 49.04L256.251 48.5138C255.294 45.0044 254.272 41.1417 253.186 36.9251L251.249 37.424L249.312 37.9229C250.402 42.1543 251.429 46.0356 252.392 49.5662L254.321 49.04ZM251.249 37.424L249.294 37.0029C248.401 41.1471 247.477 45.1947 246.521 49.1457L248.465 49.616L250.409 50.0863C251.373 46.1013 252.305 42.0209 253.204 37.8451L251.249 37.424ZM248.465 49.616L246.521 49.1457C245.565 53.0998 244.707 56.4359 243.947 59.1584L245.873 59.696L247.8 60.2336C248.576 57.4521 249.446 54.0682 250.409 50.0863L248.465 49.616ZM245.873 59.696L244.509 58.2339C243.861 58.8385 242.745 59.4585 240.979 59.9883L241.553 61.904L242.128 63.8197C244.202 63.1975 245.966 62.3455 247.238 61.1581L245.873 59.696ZM241.553 61.904L240.979 59.9883C239.27 60.5008 237.355 60.768 235.217 60.768V62.768V64.768C237.687 64.768 239.996 64.4592 242.128 63.8197L241.553 61.904ZM235.217 62.768V60.768C232.515 60.768 230.103 60.4077 227.962 59.7136L227.345 61.616L226.728 63.5184C229.324 64.3603 232.16 64.768 235.217 64.768V62.768ZM227.345 61.616L228.025 59.7349C225.971 58.9932 225.023 58.1035 224.638 57.2971L222.833 58.16L221.029 59.0229C222.051 61.1605 224.112 62.5748 226.666 63.4971L227.345 61.616ZM222.833 58.16L224.622 57.2656C224.117 56.256 223.515 54.679 222.821 52.4723L220.913 53.072L219.005 53.6717C219.72 55.945 220.397 57.76 221.044 59.0544L222.833 58.16ZM220.913 53.072L222.84 52.5367C222.207 50.2568 221.54 47.6854 220.84 44.8211L218.897 45.296L216.954 45.7709C217.662 48.6666 218.34 51.2792 218.986 53.6073L220.913 53.072ZM218.897 45.296L220.842 44.8309C220.141 41.8957 219.406 38.7356 218.64 35.3503L216.689 35.792L214.739 36.2337C215.508 39.6324 216.246 42.8083 216.952 45.7611L218.897 45.296ZM216.689 35.792L218.648 35.3856C217.946 32.0054 217.276 28.6252 216.639 25.2452L214.673 25.616L212.708 25.9868C213.35 29.3908 214.025 32.7946 214.731 36.1984L216.689 35.792ZM214.673 25.616L216.645 25.2812C216.07 21.8951 215.527 18.6054 215.016 15.412L213.041 15.728L211.066 16.044C211.579 19.2506 212.124 22.5529 212.701 25.9508L214.673 25.616ZM213.041 15.728L215.017 15.4181C214.51 12.1856 214.132 9.25043 213.88 6.61038L211.889 6.8L209.898 6.98961C210.159 9.72556 210.548 12.7424 211.065 16.0379L213.041 15.728ZM211.889 6.8L213.25 8.26558C213.929 7.63535 214.963 6.97608 216.439 6.32663L215.633 4.496L214.828 2.66537C213.104 3.42392 211.642 4.30064 210.528 5.33441L211.889 6.8ZM215.633 4.496L216.439 6.32663C217.769 5.74113 219.221 5.44 220.817 5.44V3.44V1.44C218.701 1.44 216.697 1.84287 214.828 2.66537L215.633 4.496ZM220.817 3.44V5.44C222.956 5.44 224.502 5.9168 225.613 6.70405L226.769 5.07199L227.925 3.43994C225.965 2.05119 223.543 1.44 220.817 1.44V3.44ZM226.769 5.07199L225.691 6.75654C226.661 7.37734 227.441 8.5305 227.769 10.6561L229.745 10.352L231.722 10.0479C231.281 7.18149 230.077 4.81465 227.847 3.38745L226.769 5.07199ZM229.745 10.352L227.769 10.6619C228.793 17.1864 229.624 22.6196 230.263 26.963L232.241 26.672L234.22 26.381C233.579 22.0204 232.746 16.5736 231.721 10.0421L229.745 10.352ZM232.241 26.672L230.267 26.9914C230.97 31.3349 231.511 34.901 231.892 37.6942L233.873 37.424L235.855 37.1538C235.468 34.315 234.921 30.7131 234.216 26.3526L232.241 26.672ZM233.873 37.424L231.899 37.7453C232.346 40.4889 232.661 42.6046 232.849 44.1041L234.833 43.856L236.818 43.6079C236.621 42.0354 236.297 39.8631 235.847 37.1026L233.873 37.424ZM234.833 43.856L232.849 44.1041C233.044 45.6642 233.244 46.9452 233.454 47.9231L235.409 47.504L237.365 47.0849C237.19 46.2708 237.007 45.1198 236.818 43.6079L234.833 43.856ZM235.409 47.504V49.504H235.889V47.504V45.504H235.409V47.504ZM235.889 47.504L237.84 47.943C238.415 45.3883 238.958 43.0268 239.468 40.8581L237.521 40.4L235.574 39.9419C235.061 42.1252 234.515 44.4997 233.938 47.065L235.889 47.504ZM237.521 40.4L239.468 40.8581C239.98 38.6821 240.492 36.5061 241.004 34.3301L239.057 33.872L237.11 33.4139C236.598 35.5899 236.086 37.7659 235.574 39.9419L237.521 40.4ZM239.057 33.872L240.994 34.3701C241.575 32.1124 242.155 29.7282 242.734 27.2177L240.785 26.768L238.836 26.3183C238.264 28.7998 237.692 31.1516 237.12 33.3739L239.057 33.872ZM240.785 26.768L242.736 27.207C243.317 24.625 243.929 21.6944 244.572 18.4168L242.609 18.032L240.647 17.6472C240.009 20.8976 239.405 23.791 238.834 26.329L240.785 26.768ZM315.404 61.616L315.93 63.5455L317.404 63.1436V61.616H315.404ZM312.044 62.192L311.796 60.2074L311.786 60.2088L312.044 62.192ZM303.692 62.096L304.126 60.1436L304.083 60.1341L304.04 60.1264L303.692 62.096ZM300.908 60.944L299.708 62.544L300.908 60.944ZM299.18 58.544L297.308 59.2462L299.18 58.544ZM298.604 3.824L298.246 1.85626L296.604 2.15485V3.824H298.604ZM301.964 3.344L302.212 5.32856L302.253 5.32349L302.293 5.31679L301.964 3.344ZM310.22 3.344L309.762 5.29083L309.826 5.30594L309.891 5.31679L310.22 3.344ZM313.1 4.496L311.9 6.096V6.096L313.1 4.496ZM314.828 6.896L312.956 7.59825V7.59825L314.828 6.896ZM315.404 61.616L314.878 59.6865C314.319 59.8388 313.318 60.0172 311.796 60.2074L312.044 62.192L312.292 64.1766C313.842 63.9828 315.081 63.7772 315.93 63.5455L315.404 61.616ZM312.044 62.192L311.786 60.2088C310.399 60.3897 309.013 60.48 307.628 60.48V62.48V64.48C309.188 64.48 310.746 64.3783 312.303 64.1752L312.044 62.192ZM307.628 62.48V60.48C306.268 60.48 305.106 60.3613 304.126 60.1436L303.692 62.096L303.258 64.0484C304.583 64.3427 306.045 64.48 307.628 64.48V62.48ZM303.692 62.096L304.04 60.1264C303.214 59.9807 302.59 59.705 302.108 59.344L300.908 60.944L299.708 62.544C300.763 63.335 301.994 63.8273 303.345 64.0656L303.692 62.096ZM300.908 60.944L302.108 59.344C301.686 59.0276 301.322 58.5595 301.053 57.8418L299.18 58.544L297.308 59.2462C297.806 60.5765 298.594 61.7084 299.708 62.544L300.908 60.944ZM299.18 58.544L301.053 57.8418C300.785 57.1276 300.604 56.0483 300.604 54.512H298.604H296.604C296.604 56.3037 296.807 57.9124 297.308 59.2462L299.18 58.544ZM298.604 54.512H300.604V3.824H298.604H296.604V54.512H298.604ZM298.604 3.824L298.962 5.79174C299.608 5.67433 300.681 5.51996 302.212 5.32856L301.964 3.344L301.716 1.35944C300.175 1.55203 299.009 1.71766 298.246 1.85626L298.604 3.824ZM301.964 3.344L302.293 5.31679C303.732 5.07702 305.093 4.96 306.38 4.96V2.96V0.959999C304.851 0.959999 303.269 1.09898 301.635 1.37121L301.964 3.344ZM306.38 2.96V4.96C307.744 4.96 308.863 5.07925 309.762 5.29083L310.22 3.344L310.678 1.39717C309.402 1.09675 307.961 0.959999 306.38 0.959999V2.96ZM310.22 3.344L309.891 5.31679C310.795 5.46738 311.438 5.74956 311.9 6.096L313.1 4.496L314.3 2.896C313.226 2.09043 311.949 1.60462 310.549 1.37121L310.22 3.344ZM313.1 4.496L311.9 6.096C312.322 6.41239 312.686 6.88048 312.956 7.59825L314.828 6.896L316.701 6.19375C316.202 4.86351 315.414 3.73161 314.3 2.896L313.1 4.496ZM314.828 6.896L312.956 7.59825C313.223 8.31242 313.404 9.39175 313.404 10.928H315.404H317.404C317.404 9.13625 317.201 7.52758 316.701 6.19375L314.828 6.896ZM315.404 10.928H313.404V61.616H315.404H317.404V10.928H315.404ZM380.558 59.984L381.972 61.3982L382.558 60.8124V59.984H380.558ZM376.622 62L376.12 60.064L376.077 60.0753L376.034 60.0884L376.622 62ZM363.854 61.712L364.487 59.8146L363.854 61.712ZM358.67 56.624L356.874 57.5042L356.878 57.5113L356.881 57.5184L358.67 56.624ZM349.166 37.232L347.366 38.1031L347.37 38.1122L349.166 37.232ZM346.574 31.664L344.736 32.4518L344.741 32.4641L344.747 32.4763L346.574 31.664ZM344.078 25.52L345.942 24.7951L345.353 23.2799L343.749 23.5472L344.078 25.52ZM343.502 25.616L343.173 23.6432L341.373 23.9433L341.508 25.7637L343.502 25.616ZM343.886 36.176H341.886V36.1939L341.887 36.2117L343.886 36.176ZM343.982 61.616L344.508 63.5455L345.982 63.1436V61.616H343.982ZM340.718 62.192L340.46 60.2088L340.448 60.2103L340.718 62.192ZM332.75 62.192L333.098 60.2224L332.75 62.192ZM330.062 61.04L331.329 59.4921L330.062 61.04ZM328.43 58.736L326.558 59.4382L326.565 59.4586L326.573 59.4788L328.43 58.736ZM327.854 6.8L326.216 5.65307L325.854 6.16955V6.8H327.854ZM331.982 3.92L331.33 2.02925L331.982 3.92ZM344.654 4.112L343.971 5.99158L344.004 6.00384L344.039 6.01488L344.654 4.112ZM349.838 9.104L348.041 9.98086L348.046 9.99132L349.838 9.104ZM359.438 28.496L361.239 27.6249L361.235 27.6168L361.231 27.6087L359.438 28.496ZM362.03 34.16L360.192 34.9478L360.197 34.9601L360.203 34.9723L362.03 34.16ZM364.526 40.208L362.662 40.9329L363.271 42.4986L364.918 42.1692L364.526 40.208ZM365.006 40.112L365.398 42.0732L367.131 41.7266L367.001 39.9643L365.006 40.112ZM364.526 29.744L366.526 29.707V29.707L364.526 29.744ZM364.43 3.824L363.904 1.89447L362.43 2.29641V3.824H364.43ZM367.598 3.248L367.34 1.26476L367.328 1.26634L367.598 3.248ZM378.35 4.496L377.208 6.13781L377.233 6.15488L377.258 6.17122L378.35 4.496ZM380.558 59.984L379.144 58.5698C378.583 59.1311 377.637 59.6708 376.12 60.064L376.622 62L377.124 63.936C379.063 63.4332 380.742 62.6289 381.972 61.3982L380.558 59.984ZM376.622 62L376.034 60.0884C374.615 60.525 372.809 60.768 370.574 60.768V62.768V64.768C373.075 64.768 375.301 64.499 377.21 63.9116L376.622 62ZM370.574 62.768V60.768C368.408 60.768 366.382 60.4464 364.487 59.8146L363.854 61.712L363.222 63.6094C365.55 64.3856 368.005 64.768 370.574 64.768V62.768ZM363.854 61.712L364.487 59.8146C363.034 59.3304 361.651 58.1139 360.459 55.7296L358.67 56.624L356.881 57.5184C358.377 60.5101 360.451 62.6856 363.222 63.6094L363.854 61.712ZM358.67 56.624L360.466 55.7438L350.962 36.3518L349.166 37.232L347.37 38.1122L356.874 57.5042L358.67 56.624ZM349.166 37.232L350.967 36.3609C350.014 34.3933 349.16 32.5571 348.402 30.8517L346.574 31.664L344.747 32.4763C345.525 34.2269 346.398 36.1027 347.366 38.1031L349.166 37.232ZM346.574 31.664L348.413 30.8762C347.655 29.1096 346.832 27.0833 345.942 24.7951L344.078 25.52L342.214 26.2449C343.116 28.5647 343.957 30.6344 344.736 32.4518L346.574 31.664ZM344.078 25.52L343.749 23.5472L343.173 23.6432L343.502 25.616L343.831 27.5888L344.407 27.4928L344.078 25.52ZM343.502 25.616L341.508 25.7637C341.76 29.1689 341.886 32.6396 341.886 36.176H343.886H345.886C345.886 32.5444 345.757 28.9751 345.497 25.4683L343.502 25.616ZM343.886 36.176L341.887 36.2117C341.95 39.7842 341.982 43.2923 341.982 46.736H343.982H345.982C345.982 43.2677 345.95 39.7358 345.886 36.1403L343.886 36.176ZM343.982 46.736H341.982V61.616H343.982H345.982V46.736H343.982ZM343.982 61.616L343.456 59.6865C342.89 59.8409 341.914 60.0191 340.46 60.2088L340.718 62.192L340.977 64.1752C342.467 63.9809 343.667 63.7751 344.508 63.5455L343.982 61.616ZM340.718 62.192L340.448 60.2103C339.129 60.3902 337.811 60.48 336.494 60.48V62.48V64.48C337.993 64.48 339.492 64.3778 340.988 64.1737L340.718 62.192ZM336.494 62.48V60.48C335.173 60.48 334.045 60.3896 333.098 60.2224L332.75 62.192L332.403 64.1616C333.632 64.3784 335 64.48 336.494 64.48V62.48ZM332.75 62.192L333.098 60.2224C332.275 60.0773 331.716 59.8091 331.329 59.4921L330.062 61.04L328.796 62.5879C329.816 63.4229 331.049 63.9227 332.403 64.1616L332.75 62.192ZM330.062 61.04L331.329 59.4921C330.92 59.1581 330.563 58.6827 330.287 57.9932L328.43 58.736L326.573 59.4788C327.065 60.7093 327.796 61.7699 328.796 62.5879L330.062 61.04ZM328.43 58.736L330.303 58.0338C330.033 57.3126 329.854 56.2612 329.854 54.8H327.854H325.854C325.854 56.5388 326.06 58.1114 326.558 59.4382L328.43 58.736ZM327.854 54.8H329.854V6.8H327.854H325.854V54.8H327.854ZM327.854 6.8L329.493 7.94692C330.091 7.09268 331.074 6.34876 332.634 5.81074L331.982 3.92L331.33 2.02925C329.179 2.77123 327.41 3.94731 326.216 5.65307L327.854 6.8ZM331.982 3.92L332.634 5.81074C334.265 5.24837 336.027 4.96 337.934 4.96V2.96V0.959999C335.617 0.959999 333.411 1.31163 331.33 2.02925L331.982 3.92ZM337.934 2.96V4.96C340.082 4.96 342.089 5.30746 343.971 5.99158L344.654 4.112L345.338 2.23241C342.995 1.38054 340.523 0.959999 337.934 0.959999V2.96ZM344.654 4.112L344.039 6.01488C345.564 6.50841 346.929 7.70272 348.041 9.98085L349.838 9.104L351.636 8.22715C350.187 5.25728 348.096 3.12359 345.27 2.20911L344.654 4.112ZM349.838 9.104L348.046 9.99132L357.646 29.3833L359.438 28.496L361.231 27.6087L351.631 8.21668L349.838 9.104ZM359.438 28.496L357.638 29.3671C358.586 31.3271 359.437 33.1872 360.192 34.9478L362.03 34.16L363.869 33.3722C363.087 31.5488 362.21 29.6329 361.239 27.6249L359.438 28.496ZM362.03 34.16L360.203 34.9723C360.955 36.6643 361.774 38.6499 362.662 40.9329L364.526 40.208L366.39 39.4831C365.486 37.1581 364.642 35.1117 363.858 33.3477L362.03 34.16ZM364.526 40.208L364.918 42.1692L365.398 42.0732L365.006 40.112L364.614 38.1508L364.134 38.2468L364.526 40.208ZM365.006 40.112L367.001 39.9643C366.748 36.545 366.589 33.1259 366.526 29.707L364.526 29.744L362.527 29.781C362.591 33.2741 362.753 36.767 363.012 40.2597L365.006 40.112ZM364.526 29.744L366.526 29.707C366.462 26.2633 366.43 22.8197 366.43 19.376H364.43H362.43C362.43 22.8443 362.462 26.3127 362.527 29.781L364.526 29.744ZM364.43 19.376H366.43V3.824H364.43H362.43V19.376H364.43ZM364.43 3.824L364.956 5.75353C365.531 5.59688 366.482 5.41869 367.868 5.22966L367.598 3.248L367.328 1.26634C365.898 1.4613 364.738 1.66712 363.904 1.89447L364.43 3.824ZM367.598 3.248L367.857 5.2312C369.248 5.04979 370.601 4.96 371.918 4.96V2.96V0.959999C370.419 0.959999 368.893 1.06221 367.34 1.26479L367.598 3.248ZM371.918 2.96V4.96C374.541 4.96 376.213 5.44553 377.208 6.13781L378.35 4.496L379.492 2.85419C377.544 1.49847 374.927 0.959999 371.918 0.959999V2.96ZM378.35 4.496L377.258 6.17122C377.834 6.54708 378.558 7.65824 378.558 10.64H380.558H382.558C382.558 7.34976 381.81 4.36492 379.443 2.82078L378.35 4.496ZM380.558 10.64H378.558V59.984H380.558H382.558V10.64H380.558Z" fill="#E6680D" mask="url(#path-40-outside-1_7013_44297)"/>
</g>
<defs>
<filter id="filter0_i_7013_44297" x="38.8018" y="107" width="315" height="56" filterUnits="userSpaceOnUse" color-interpolation-filters="sRGB">
<feFlood flood-opacity="0" result="BackgroundImageFix"/>
<feBlend mode="normal" in="SourceGraphic" in2="BackgroundImageFix" result="shape"/>
<feColorMatrix in="SourceAlpha" type="matrix" values="0 0 0 0 0 0 0 0 0 0 0 0 0 0 0 0 0 0 127 0" result="hardAlpha"/>
<feOffset/>
<feGaussianBlur stdDeviation="5.45"/>
<feComposite in2="hardAlpha" operator="arithmetic" k2="-1" k3="1"/>
<feColorMatrix type="matrix" values="0 0 0 0 0.983333 0 0 0 0 0 0 0 0 0 1 0 0 0 1 0"/>
<feBlend mode="normal" in2="shape" result="effect1_innerShadow_7013_44297"/>
</filter>
<filter id="filter1_d_7013_44297" x="69.8018" y="83" width="34" height="34" filterUnits="userSpaceOnUse" color-interpolation-filters="sRGB">
<feFlood flood-opacity="0" result="BackgroundImageFix"/>
<feColorMatrix in="SourceAlpha" type="matrix" values="0 0 0 0 0 0 0 0 0 0 0 0 0 0 0 0 0 0 127 0" result="hardAlpha"/>
<feMorphology radius="2" operator="dilate" in="SourceAlpha" result="effect1_dropShadow_7013_44297"/>
<feOffset/>
<feGaussianBlur stdDeviation="5"/>
<feComposite in2="hardAlpha" operator="out"/>
<feColorMatrix type="matrix" values="0 0 0 0 1 0 0 0 0 0.105769 0 0 0 0 0.731731 0 0 0 1 0"/>
<feBlend mode="normal" in2="BackgroundImageFix" result="effect1_dropShadow_7013_44297"/>
<feBlend mode="normal" in="SourceGraphic" in2="effect1_dropShadow_7013_44297" result="shape"/>
</filter>
<filter id="filter2_d_7013_44297" x="309.802" y="83" width="34" height="34" filterUnits="userSpaceOnUse" color-interpolation-filters="sRGB">
<feFlood flood-opacity="0" result="BackgroundImageFix"/>
<feColorMatrix in="SourceAlpha" type="matrix" values="0 0 0 0 0 0 0 0 0 0 0 0 0 0 0 0 0 0 127 0" result="hardAlpha"/>
<feMorphology radius="2" operator="dilate" in="SourceAlpha" result="effect1_dropShadow_7013_44297"/>
<feOffset/>
<feGaussianBlur stdDeviation="5"/>
<feComposite in2="hardAlpha" operator="out"/>
<feColorMatrix type="matrix" values="0 0 0 0 1 0 0 0 0 0.105769 0 0 0 0 0.731731 0 0 0 1 0"/>
<feBlend mode="normal" in2="BackgroundImageFix" result="effect1_dropShadow_7013_44297"/>
<feBlend mode="normal" in="SourceGraphic" in2="effect1_dropShadow_7013_44297" result="shape"/>
</filter>
<filter id="filter3_d_7013_44297" x="107.802" y="83" width="34" height="34" filterUnits="userSpaceOnUse" color-interpolation-filters="sRGB">
<feFlood flood-opacity="0" result="BackgroundImageFix"/>
<feColorMatrix in="SourceAlpha" type="matrix" values="0 0 0 0 0 0 0 0 0 0 0 0 0 0 0 0 0 0 127 0" result="hardAlpha"/>
<feMorphology radius="2" operator="dilate" in="SourceAlpha" result="effect1_dropShadow_7013_44297"/>
<feOffset/>
<feGaussianBlur stdDeviation="5"/>
<feComposite in2="hardAlpha" operator="out"/>
<feColorMatrix type="matrix" values="0 0 0 0 1 0 0 0 0 0.105769 0 0 0 0 0.731731 0 0 0 1 0"/>
<feBlend mode="normal" in2="BackgroundImageFix" result="effect1_dropShadow_7013_44297"/>
<feBlend mode="normal" in="SourceGraphic" in2="effect1_dropShadow_7013_44297" result="shape"/>
</filter>
<filter id="filter4_d_7013_44297" x="147.802" y="83" width="34" height="34" filterUnits="userSpaceOnUse" color-interpolation-filters="sRGB">
<feFlood flood-opacity="0" result="BackgroundImageFix"/>
<feColorMatrix in="SourceAlpha" type="matrix" values="0 0 0 0 0 0 0 0 0 0 0 0 0 0 0 0 0 0 127 0" result="hardAlpha"/>
<feMorphology radius="2" operator="dilate" in="SourceAlpha" result="effect1_dropShadow_7013_44297"/>
<feOffset/>
<feGaussianBlur stdDeviation="5"/>
<feComposite in2="hardAlpha" operator="out"/>
<feColorMatrix type="matrix" values="0 0 0 0 1 0 0 0 0 0.105769 0 0 0 0 0.731731 0 0 0 1 0"/>
<feBlend mode="normal" in2="BackgroundImageFix" result="effect1_dropShadow_7013_44297"/>
<feBlend mode="normal" in="SourceGraphic" in2="effect1_dropShadow_7013_44297" result="shape"/>
</filter>
<filter id="filter5_d_7013_44297" x="187.802" y="83" width="34" height="34" filterUnits="userSpaceOnUse" color-interpolation-filters="sRGB">
<feFlood flood-opacity="0" result="BackgroundImageFix"/>
<feColorMatrix in="SourceAlpha" type="matrix" values="0 0 0 0 0 0 0 0 0 0 0 0 0 0 0 0 0 0 127 0" result="hardAlpha"/>
<feMorphology radius="2" operator="dilate" in="SourceAlpha" result="effect1_dropShadow_7013_44297"/>
<feOffset/>
<feGaussianBlur stdDeviation="5"/>
<feComposite in2="hardAlpha" operator="out"/>
<feColorMatrix type="matrix" values="0 0 0 0 1 0 0 0 0 0.105769 0 0 0 0 0.731731 0 0 0 1 0"/>
<feBlend mode="normal" in2="BackgroundImageFix" result="effect1_dropShadow_7013_44297"/>
<feBlend mode="normal" in="SourceGraphic" in2="effect1_dropShadow_7013_44297" result="shape"/>
</filter>
<filter id="filter6_d_7013_44297" x="227.802" y="83" width="34" height="34" filterUnits="userSpaceOnUse" color-interpolation-filters="sRGB">
<feFlood flood-opacity="0" result="BackgroundImageFix"/>
<feColorMatrix in="SourceAlpha" type="matrix" values="0 0 0 0 0 0 0 0 0 0 0 0 0 0 0 0 0 0 127 0" result="hardAlpha"/>
<feMorphology radius="2" operator="dilate" in="SourceAlpha" result="effect1_dropShadow_7013_44297"/>
<feOffset/>
<feGaussianBlur stdDeviation="5"/>
<feComposite in2="hardAlpha" operator="out"/>
<feColorMatrix type="matrix" values="0 0 0 0 1 0 0 0 0 0.105769 0 0 0 0 0.731731 0 0 0 1 0"/>
<feBlend mode="normal" in2="BackgroundImageFix" result="effect1_dropShadow_7013_44297"/>
<feBlend mode="normal" in="SourceGraphic" in2="effect1_dropShadow_7013_44297" result="shape"/>
</filter>
<filter id="filter7_d_7013_44297" x="267.802" y="83" width="34" height="34" filterUnits="userSpaceOnUse" color-interpolation-filters="sRGB">
<feFlood flood-opacity="0" result="BackgroundImageFix"/>
<feColorMatrix in="SourceAlpha" type="matrix" values="0 0 0 0 0 0 0 0 0 0 0 0 0 0 0 0 0 0 127 0" result="hardAlpha"/>
<feMorphology radius="2" operator="dilate" in="SourceAlpha" result="effect1_dropShadow_7013_44297"/>
<feOffset/>
<feGaussianBlur stdDeviation="5"/>
<feComposite in2="hardAlpha" operator="out"/>
<feColorMatrix type="matrix" values="0 0 0 0 1 0 0 0 0 0.105769 0 0 0 0 0.731731 0 0 0 1 0"/>
<feBlend mode="normal" in2="BackgroundImageFix" result="effect1_dropShadow_7013_44297"/>
<feBlend mode="normal" in="SourceGraphic" in2="effect1_dropShadow_7013_44297" result="shape"/>
</filter>
<filter id="filter8_d_7013_44297" x="31.8018" y="90" width="30" height="30" filterUnits="userSpaceOnUse" color-interpolation-filters="sRGB">
<feFlood flood-opacity="0" result="BackgroundImageFix"/>
<feColorMatrix in="SourceAlpha" type="matrix" values="0 0 0 0 0 0 0 0 0 0 0 0 0 0 0 0 0 0 127 0" result="hardAlpha"/>
<feOffset/>
<feGaussianBlur stdDeviation="5"/>
<feComposite in2="hardAlpha" operator="out"/>
<feColorMatrix type="matrix" values="0 0 0 0 1 0 0 0 0 0.105769 0 0 0 0 0.731731 0 0 0 1 0"/>
<feBlend mode="normal" in2="BackgroundImageFix" result="effect1_dropShadow_7013_44297"/>
<feBlend mode="normal" in="SourceGraphic" in2="effect1_dropShadow_7013_44297" result="shape"/>
</filter>
<filter id="filter9_d_7013_44297" x="16.8018" y="131" width="34" height="34" filterUnits="userSpaceOnUse" color-interpolation-filters="sRGB">
<feFlood flood-opacity="0" result="BackgroundImageFix"/>
<feColorMatrix in="SourceAlpha" type="matrix" values="0 0 0 0 0 0 0 0 0 0 0 0 0 0 0 0 0 0 127 0" result="hardAlpha"/>
<feMorphology radius="2" operator="dilate" in="SourceAlpha" result="effect1_dropShadow_7013_44297"/>
<feOffset/>
<feGaussianBlur stdDeviation="5"/>
<feComposite in2="hardAlpha" operator="out"/>
<feColorMatrix type="matrix" values="0 0 0 0 1 0 0 0 0 0.105769 0 0 0 0 0.731731 0 0 0 1 0"/>
<feBlend mode="normal" in2="BackgroundImageFix" result="effect1_dropShadow_7013_44297"/>
<feBlend mode="normal" in="SourceGraphic" in2="effect1_dropShadow_7013_44297" result="shape"/>
</filter>
<filter id="filter10_d_7013_44297" x="331.802" y="151" width="30" height="30" filterUnits="userSpaceOnUse" color-interpolation-filters="sRGB">
<feFlood flood-opacity="0" result="BackgroundImageFix"/>
<feColorMatrix in="SourceAlpha" type="matrix" values="0 0 0 0 0 0 0 0 0 0 0 0 0 0 0 0 0 0 127 0" result="hardAlpha"/>
<feOffset/>
<feGaussianBlur stdDeviation="5"/>
<feComposite in2="hardAlpha" operator="out"/>
<feColorMatrix type="matrix" values="0 0 0 0 1 0 0 0 0 0.105769 0 0 0 0 0.731731 0 0 0 1 0"/>
<feBlend mode="normal" in2="BackgroundImageFix" result="effect1_dropShadow_7013_44297"/>
<feBlend mode="normal" in="SourceGraphic" in2="effect1_dropShadow_7013_44297" result="shape"/>
</filter>
<filter id="filter11_d_7013_44297" x="342.802" y="106" width="34" height="34" filterUnits="userSpaceOnUse" color-interpolation-filters="sRGB">
<feFlood flood-opacity="0" result="BackgroundImageFix"/>
<feColorMatrix in="SourceAlpha" type="matrix" values="0 0 0 0 0 0 0 0 0 0 0 0 0 0 0 0 0 0 127 0" result="hardAlpha"/>
<feMorphology radius="2" operator="dilate" in="SourceAlpha" result="effect1_dropShadow_7013_44297"/>
<feOffset/>
<feGaussianBlur stdDeviation="5"/>
<feComposite in2="hardAlpha" operator="out"/>
<feColorMatrix type="matrix" values="0 0 0 0 1 0 0 0 0 0.105769 0 0 0 0 0.731731 0 0 0 1 0"/>
<feBlend mode="normal" in2="BackgroundImageFix" result="effect1_dropShadow_7013_44297"/>
<feBlend mode="normal" in="SourceGraphic" in2="effect1_dropShadow_7013_44297" result="shape"/>
</filter>
<filter id="filter12_d_7013_44297" x="49.8018" y="153" width="34" height="34" filterUnits="userSpaceOnUse" color-interpolation-filters="sRGB">
<feFlood flood-opacity="0" result="BackgroundImageFix"/>
<feColorMatrix in="SourceAlpha" type="matrix" values="0 0 0 0 0 0 0 0 0 0 0 0 0 0 0 0 0 0 127 0" result="hardAlpha"/>
<feMorphology radius="2" operator="dilate" in="SourceAlpha" result="effect1_dropShadow_7013_44297"/>
<feOffset/>
<feGaussianBlur stdDeviation="5"/>
<feComposite in2="hardAlpha" operator="out"/>
<feColorMatrix type="matrix" values="0 0 0 0 1 0 0 0 0 0.105769 0 0 0 0 0.731731 0 0 0 1 0"/>
<feBlend mode="normal" in2="BackgroundImageFix" result="effect1_dropShadow_7013_44297"/>
<feBlend mode="normal" in="SourceGraphic" in2="effect1_dropShadow_7013_44297" result="shape"/>
</filter>
<filter id="filter13_d_7013_44297" x="89.8018" y="153" width="34" height="34" filterUnits="userSpaceOnUse" color-interpolation-filters="sRGB">
<feFlood flood-opacity="0" result="BackgroundImageFix"/>
<feColorMatrix in="SourceAlpha" type="matrix" values="0 0 0 0 0 0 0 0 0 0 0 0 0 0 0 0 0 0 127 0" result="hardAlpha"/>
<feMorphology radius="2" operator="dilate" in="SourceAlpha" result="effect1_dropShadow_7013_44297"/>
<feOffset/>
<feGaussianBlur stdDeviation="5"/>
<feComposite in2="hardAlpha" operator="out"/>
<feColorMatrix type="matrix" values="0 0 0 0 1 0 0 0 0 0.105769 0 0 0 0 0.731731 0 0 0 1 0"/>
<feBlend mode="normal" in2="BackgroundImageFix" result="effect1_dropShadow_7013_44297"/>
<feBlend mode="normal" in="SourceGraphic" in2="effect1_dropShadow_7013_44297" result="shape"/>
</filter>
<filter id="filter14_d_7013_44297" x="129.802" y="153" width="34" height="34" filterUnits="userSpaceOnUse" color-interpolation-filters="sRGB">
<feFlood flood-opacity="0" result="BackgroundImageFix"/>
<feColorMatrix in="SourceAlpha" type="matrix" values="0 0 0 0 0 0 0 0 0 0 0 0 0 0 0 0 0 0 127 0" result="hardAlpha"/>
<feMorphology radius="2" operator="dilate" in="SourceAlpha" result="effect1_dropShadow_7013_44297"/>
<feOffset/>
<feGaussianBlur stdDeviation="5"/>
<feComposite in2="hardAlpha" operator="out"/>
<feColorMatrix type="matrix" values="0 0 0 0 1 0 0 0 0 0.105769 0 0 0 0 0.731731 0 0 0 1 0"/>
<feBlend mode="normal" in2="BackgroundImageFix" result="effect1_dropShadow_7013_44297"/>
<feBlend mode="normal" in="SourceGraphic" in2="effect1_dropShadow_7013_44297" result="shape"/>
</filter>
<filter id="filter15_d_7013_44297" x="169.802" y="153" width="34" height="34" filterUnits="userSpaceOnUse" color-interpolation-filters="sRGB">
<feFlood flood-opacity="0" result="BackgroundImageFix"/>
<feColorMatrix in="SourceAlpha" type="matrix" values="0 0 0 0 0 0 0 0 0 0 0 0 0 0 0 0 0 0 127 0" result="hardAlpha"/>
<feMorphology radius="2" operator="dilate" in="SourceAlpha" result="effect1_dropShadow_7013_44297"/>
<feOffset/>
<feGaussianBlur stdDeviation="5"/>
<feComposite in2="hardAlpha" operator="out"/>
<feColorMatrix type="matrix" values="0 0 0 0 1 0 0 0 0 0.105769 0 0 0 0 0.731731 0 0 0 1 0"/>
<feBlend mode="normal" in2="BackgroundImageFix" result="effect1_dropShadow_7013_44297"/>
<feBlend mode="normal" in="SourceGraphic" in2="effect1_dropShadow_7013_44297" result="shape"/>
</filter>
<filter id="filter16_d_7013_44297" x="209.802" y="153" width="34" height="34" filterUnits="userSpaceOnUse" color-interpolation-filters="sRGB">
<feFlood flood-opacity="0" result="BackgroundImageFix"/>
<feColorMatrix in="SourceAlpha" type="matrix" values="0 0 0 0 0 0 0 0 0 0 0 0 0 0 0 0 0 0 127 0" result="hardAlpha"/>
<feMorphology radius="2" operator="dilate" in="SourceAlpha" result="effect1_dropShadow_7013_44297"/>
<feOffset/>
<feGaussianBlur stdDeviation="5"/>
<feComposite in2="hardAlpha" operator="out"/>
<feColorMatrix type="matrix" values="0 0 0 0 1 0 0 0 0 0.105769 0 0 0 0 0.731731 0 0 0 1 0"/>
<feBlend mode="normal" in2="BackgroundImageFix" result="effect1_dropShadow_7013_44297"/>
<feBlend mode="normal" in="SourceGraphic" in2="effect1_dropShadow_7013_44297" result="shape"/>
</filter>
<filter id="filter17_d_7013_44297" x="249.802" y="153" width="34" height="34" filterUnits="userSpaceOnUse" color-interpolation-filters="sRGB">
<feFlood flood-opacity="0" result="BackgroundImageFix"/>
<feColorMatrix in="SourceAlpha" type="matrix" values="0 0 0 0 0 0 0 0 0 0 0 0 0 0 0 0 0 0 127 0" result="hardAlpha"/>
<feMorphology radius="2" operator="dilate" in="SourceAlpha" result="effect1_dropShadow_7013_44297"/>
<feOffset/>
<feGaussianBlur stdDeviation="5"/>
<feComposite in2="hardAlpha" operator="out"/>
<feColorMatrix type="matrix" values="0 0 0 0 1 0 0 0 0 0.105769 0 0 0 0 0.731731 0 0 0 1 0"/>
<feBlend mode="normal" in2="BackgroundImageFix" result="effect1_dropShadow_7013_44297"/>
<feBlend mode="normal" in="SourceGraphic" in2="effect1_dropShadow_7013_44297" result="shape"/>
</filter>
<filter id="filter18_d_7013_44297" x="289.802" y="153" width="34" height="34" filterUnits="userSpaceOnUse" color-interpolation-filters="sRGB">
<feFlood flood-opacity="0" result="BackgroundImageFix"/>
<feColorMatrix in="SourceAlpha" type="matrix" values="0 0 0 0 0 0 0 0 0 0 0 0 0 0 0 0 0 0 127 0" result="hardAlpha"/>
<feMorphology radius="2" operator="dilate" in="SourceAlpha" result="effect1_dropShadow_7013_44297"/>
<feOffset/>
<feGaussianBlur stdDeviation="5"/>
<feComposite in2="hardAlpha" operator="out"/>
<feColorMatrix type="matrix" values="0 0 0 0 1 0 0 0 0 0.105769 0 0 0 0 0.731731 0 0 0 1 0"/>
<feBlend mode="normal" in2="BackgroundImageFix" result="effect1_dropShadow_7013_44297"/>
<feBlend mode="normal" in="SourceGraphic" in2="effect1_dropShadow_7013_44297" result="shape"/>
</filter>
<filter id="filter19_di_7013_44297" x="0" y="0" width="386.558" height="73.7275" filterUnits="userSpaceOnUse" color-interpolation-filters="sRGB">
<feFlood flood-opacity="0" result="BackgroundImageFix"/>
<feColorMatrix in="SourceAlpha" type="matrix" values="0 0 0 0 0 0 0 0 0 0 0 0 0 0 0 0 0 0 127 0" result="hardAlpha"/>
<feOffset dy="4"/>
<feGaussianBlur stdDeviation="2"/>
<feComposite in2="hardAlpha" operator="out"/>
<feColorMatrix type="matrix" values="0 0 0 0 0.878431 0 0 0 0 0.690196 0 0 0 0 0.552941 0 0 0 1 0"/>
<feBlend mode="normal" in2="BackgroundImageFix" result="effect1_dropShadow_7013_44297"/>
<feBlend mode="normal" in="SourceGraphic" in2="effect1_dropShadow_7013_44297" result="shape"/>
<feColorMatrix in="SourceAlpha" type="matrix" values="0 0 0 0 0 0 0 0 0 0 0 0 0 0 0 0 0 0 127 0" result="hardAlpha"/>
<feOffset dy="4"/>
<feGaussianBlur stdDeviation="2"/>
<feComposite in2="hardAlpha" operator="arithmetic" k2="-1" k3="1"/>
<feColorMatrix type="matrix" values="0 0 0 0 0.996078 0 0 0 0 0.662745 0 0 0 0 0.0745098 0 0 0 1 0"/>
<feBlend mode="normal" in2="shape" result="effect2_innerShadow_7013_44297"/>
</filter>
<linearGradient id="paint0_linear_7013_44297" x1="196.302" y1="91" x2="196.302" y2="179" gradientUnits="userSpaceOnUse">
<stop stop-color="#A94E96"/>
<stop offset="1" stop-color="#923274"/>
</linearGradient>
<linearGradient id="paint1_linear_7013_44297" x1="196.302" y1="91" x2="196.302" y2="179" gradientUnits="userSpaceOnUse">
<stop stop-color="#A94E96"/>
<stop offset="1" stop-color="#923274" stop-opacity="0.1"/>
</linearGradient>
<linearGradient id="paint2_linear_7013_44297" x1="204.113" y1="179" x2="204.113" y2="91" gradientUnits="userSpaceOnUse">
<stop stop-color="#62224C"/>
<stop offset="1" stop-color="#C8449A"/>
</linearGradient>
<linearGradient id="paint3_linear_7013_44297" x1="38.8018" y1="135" x2="353.802" y2="135" gradientUnits="userSpaceOnUse">
<stop stop-color="#16192C"/>
<stop offset="1" stop-color="#462323"/>
</linearGradient>
<linearGradient id="paint4_linear_7013_44297" x1="184.889" y1="161.817" x2="184.889" y2="108.183" gradientUnits="userSpaceOnUse">
<stop stop-color="#FF6BA7"/>
<stop offset="1" stop-color="#F64848"/>
</linearGradient>
<linearGradient id="paint5_linear_7013_44297" x1="196.302" y1="28.098" x2="196.302" y2="51.8955" gradientUnits="userSpaceOnUse">
<stop stop-color="#FDA913"/>
<stop offset="1" stop-color="#F6ED49"/>
</linearGradient>
<clipPath id="clip0_7013_44297">
<rect width="315" height="56" fill="white" transform="translate(38.8018 107)"/>
</clipPath>
</defs>
</svg>
